NotoSansDisplay-Regular.ufo
<glyph name="tbar" format="2">
  <advance width="361"/>
  <unicode hex="0167"/>
  <anchor x="204" y="0" name="bottom"/>
  <anchor x="148" y="659" name="top"/>
  <anchor x="173" y="268" name="center"/>
  <anchor x="320" y="659" name="topright"/>
  <outline>
    <contour>
      <point x="24" y="280" type="line"/>
      <point x="326" y="280" type="line"/>
      <point x="326" y="346" type="line"/>
      <point x="24" y="346" type="line"/>
    </contour>
    <component base="t"/>
  </outline>
</glyph>
<glyph name="uni0191" format="2">
  <advance width="560"/>
  <unicode hex="0191"/>
  <anchor x="135" y="0" name="bottom"/>
  <anchor x="368" y="714" name="top"/>
  <anchor x="560" y="714" name="topright"/>
  <outline>
    <contour>
      <point x="125" y="-15" type="curve" smooth="yes"/>
      <point x="226" y="-15"/>
      <point x="279" y="49"/>
      <point x="279" y="146" type="curve" smooth="yes"/>
      <point x="279" y="333" type="line"/>
      <point x="519" y="333" type="line"/>
      <point x="519" y="412" type="line"/>
      <point x="279" y="412" type="line"/>
      <point x="279" y="635" type="line"/>
      <point x="536" y="635" type="line"/>
      <point x="536" y="714" type="line"/>
      <point x="191" y="714" type="line"/>
      <point x="191" y="156" type="line" smooth="yes"/>
      <point x="191" y="98"/>
      <point x="169" y="60"/>
      <point x="129" y="60" type="curve" smooth="yes"/>
      <point x="91" y="60"/>
      <point x="72" y="87"/>
      <point x="72" y="122" type="curve" smooth="yes"/>
      <point x="72" y="134"/>
      <point x="74" y="145"/>
      <point x="76" y="154" type="curve"/>
      <point x="-6" y="180" type="line"/>
      <point x="-12" y="163"/>
      <point x="-17" y="142"/>
      <point x="-17" y="119" type="curve" smooth="yes"/>
      <point x="-17" y="36"/>
      <point x="34" y="-15"/>
    </contour>
  </outline>
</glyph>
<glyph name="florin" format="2">
  <advance width="406"/>
  <unicode hex="0192"/>
  <anchor x="128" y="0" name="bottom"/>
  <anchor x="318" y="765" name="top"/>
  <anchor x="439" y="765" name="topright"/>
  <outline>
    <contour>
      <point x="121" y="-15" type="curve" smooth="yes"/>
      <point x="226" y="-15"/>
      <point x="269" y="56"/>
      <point x="269" y="142" type="curve" smooth="yes"/>
      <point x="269" y="468" type="line"/>
      <point x="395" y="468" type="line"/>
      <point x="395" y="536" type="line"/>
      <point x="269" y="536" type="line"/>
      <point x="269" y="571" type="line" smooth="yes"/>
      <point x="269" y="655"/>
      <point x="294" y="693"/>
      <point x="348" y="693" type="curve" smooth="yes"/>
      <point x="376" y="693"/>
      <point x="403" y="685"/>
      <point x="424" y="678" type="curve"/>
      <point x="447" y="747" type="line"/>
      <point x="422" y="756"/>
      <point x="387" y="765"/>
      <point x="346" y="765" type="curve" smooth="yes"/>
      <point x="242" y="765"/>
      <point x="181" y="708"/>
      <point x="181" y="570" type="curve" smooth="yes"/>
      <point x="181" y="539" type="line"/>
      <point x="94" y="509" type="line"/>
      <point x="94" y="468" type="line"/>
      <point x="181" y="468" type="line"/>
      <point x="181" y="152" type="line" smooth="yes"/>
      <point x="181" y="97"/>
      <point x="164" y="60"/>
      <point x="121" y="60" type="curve" smooth="yes"/>
      <point x="84" y="60"/>
      <point x="65" y="80"/>
      <point x="65" y="118" type="curve" smooth="yes"/>
      <point x="65" y="126"/>
      <point x="66" y="134"/>
      <point x="67" y="141" type="curve"/>
      <point x="-9" y="157" type="line"/>
      <point x="-13" y="145"/>
      <point x="-16" y="128"/>
      <point x="-16" y="110" type="curve" smooth="yes"/>
      <point x="-16" y="39"/>
      <point x="33" y="-15"/>
    </contour>
  </outline>
</glyph>
<glyph name="uni023C" format="2">
  <advance width="480"/>
  <unicode hex="023C"/>
  <anchor x="265" y="-208" name="bottom"/>
  <anchor x="267" y="760" name="top"/>
  <anchor x="434" y="536" name="topright"/>
  <outline>
    <contour>
      <point x="479" y="760" type="line"/>
      <point x="412" y="760" type="line"/>
      <point x="67" y="-208" type="line"/>
      <point x="134" y="-208" type="line"/>
    </contour>
    <component base="c"/>
  </outline>
</glyph>
<glyph name="uni024D" format="2">
  <advance width="391"/>
  <unicode hex="024D"/>
  <anchor x="120" y="0" name="bottom"/>
  <anchor x="236" y="536" name="top"/>
  <anchor x="372" y="536" name="topright"/>
  <outline>
    <contour>
      <point x="299" y="319" type="line"/>
      <point x="10" y="319" type="line"/>
      <point x="10" y="248" type="line"/>
      <point x="299" y="248" type="line"/>
    </contour>
    <component base="r"/>
  </outline>
</glyph>
<glyph name="uni02E6" format="2">
  <advance width="392"/>
  <unicode hex="02E6"/>
  <outline>
    <contour>
      <point x="257" y="0" type="line"/>
      <point x="319" y="0" type="line"/>
      <point x="319" y="688" type="line"/>
      <point x="257" y="688" type="line"/>
      <point x="257" y="523" type="line"/>
      <point x="73" y="523" type="line"/>
      <point x="73" y="457" type="line"/>
      <point x="257" y="457" type="line"/>
    </contour>
  </outline>
</glyph>
<glyph name="Heta" format="2">
  <advance width="420"/>
  <unicode hex="0370"/>
  <anchor x="210" y="0" name="bottom"/>
  <anchor x="210" y="714" name="top"/>
  <outline>
    <contour>
      <point x="378" y="334" type="line"/>
      <point x="378" y="412" type="line"/>
      <point x="180" y="412" type="line"/>
      <point x="180" y="714" type="line"/>
      <point x="91" y="714" type="line"/>
      <point x="91" y="0" type="line"/>
      <point x="180" y="0" type="line"/>
      <point x="180" y="334" type="line"/>
    </contour>
  </outline>
</glyph>
<glyph name="archaicsampi" format="2">
  <advance width="500"/>
  <unicode hex="0373"/>
  <anchor x="251" y="0" name="bottom"/>
  <anchor x="251" y="763" name="top"/>
  <outline>
    <contour>
      <point x="295" y="0" type="line"/>
      <point x="295" y="692" type="line"/>
      <point x="448" y="692" type="line"/>
      <point x="448" y="763" type="line"/>
      <point x="52" y="763" type="line"/>
      <point x="52" y="692" type="line"/>
      <point x="207" y="692" type="line"/>
      <point x="207" y="0" type="line"/>
    </contour>
    <contour>
      <point x="404" y="763" type="line"/>
      <point x="404" y="528" type="line"/>
      <point x="479" y="528" type="line"/>
      <point x="479" y="763" type="line"/>
    </contour>
    <contour>
      <point x="21" y="763" type="line"/>
      <point x="21" y="528" type="line"/>
      <point x="96" y="528" type="line"/>
      <point x="96" y="763" type="line"/>
    </contour>
  </outline>
</glyph>
<glyph name="uni0374" format="2">
  <advance width="210"/>
  <unicode hex="0374"/>
  <outline>
    <contour>
      <point x="19" y="566" type="curve"/>
      <point x="19" y="554" type="line"/>
      <point x="76" y="554" type="line"/>
      <point x="120" y="590"/>
      <point x="163" y="653"/>
      <point x="191" y="704" type="curve"/>
      <point x="191" y="714" type="line"/>
      <point x="89" y="714" type="line"/>
      <point x="72" y="668"/>
      <point x="46" y="611"/>
    </contour>
  </outline>
</glyph>
<glyph name="tonos" format="2">
  <advance width="542"/>
  <unicode hex="0384"/>
  <anchor x="275" y="536" name="_top"/>
  <outline>
    <contour>
      <point x="237" y="620" type="curve"/>
      <point x="237" y="606" type="line"/>
      <point x="289" y="606" type="line"/>
      <point x="322" y="662"/>
      <point x="359" y="750"/>
      <point x="370" y="794" type="curve"/>
      <point x="370" y="805" type="line"/>
      <point x="279" y="805" type="line"/>
      <point x="271" y="751"/>
      <point x="254" y="669"/>
    </contour>
  </outline>
</glyph>
<glyph name="dieresistonos" format="2">
  <advance width="542"/>
  <unicode hex="0385"/>
  <anchor x="271" y="536" name="_top"/>
  <outline>
    <contour>
      <point x="367" y="828" type="curve"/>
      <point x="367" y="838" type="line"/>
      <point x="274" y="838" type="line"/>
      <point x="265" y="792"/>
      <point x="247" y="730"/>
      <point x="233" y="690" type="curve"/>
      <point x="233" y="678" type="line"/>
      <point x="275" y="678" type="line"/>
      <point x="310" y="725"/>
      <point x="347" y="786"/>
    </contour>
    <contour>
      <point x="166" y="730" type="curve" smooth="yes"/>
      <point x="141" y="730"/>
      <point x="122" y="716"/>
      <point x="122" y="681" type="curve" smooth="yes"/>
      <point x="122" y="647"/>
      <point x="141" y="631"/>
      <point x="166" y="631" type="curve" smooth="yes"/>
      <point x="191" y="631"/>
      <point x="211" y="647"/>
      <point x="211" y="681" type="curve" smooth="yes"/>
      <point x="211" y="716"/>
      <point x="191" y="730"/>
    </contour>
    <contour>
      <point x="376" y="730" type="curve" smooth="yes"/>
      <point x="350" y="730"/>
      <point x="331" y="716"/>
      <point x="331" y="681" type="curve" smooth="yes"/>
      <point x="331" y="647"/>
      <point x="350" y="631"/>
      <point x="376" y="631" type="curve" smooth="yes"/>
      <point x="399" y="631"/>
      <point x="420" y="647"/>
      <point x="420" y="681" type="curve" smooth="yes"/>
      <point x="420" y="716"/>
      <point x="399" y="730"/>
    </contour>
  </outline>
</glyph>
<glyph name="Delta" format="2">
  <advance width="551"/>
  <unicode hex="0394"/>
  <anchor x="271" y="0" name="bottom"/>
  <anchor x="276" y="714" name="top"/>
  <outline>
    <contour>
      <point x="320" y="714" type="line"/>
      <point x="230" y="714" type="line"/>
      <point x="19" y="55" type="line"/>
      <point x="19" y="0" type="line"/>
      <point x="532" y="0" type="line"/>
      <point x="532" y="54" type="line"/>
    </contour>
    <contour>
      <point x="318" y="451" type="curve" smooth="yes"/>
      <point x="435" y="79" type="line"/>
      <point x="114" y="79" type="line"/>
      <point x="232" y="454" type="line" smooth="yes"/>
      <point x="250" y="511"/>
      <point x="264" y="568"/>
      <point x="274" y="616" type="curve"/>
      <point x="284" y="568"/>
      <point x="299" y="511"/>
    </contour>
  </outline>
</glyph>
<glyph name="Theta" format="2">
  <advance width="781"/>
  <unicode hex="0398"/>
  <anchor x="369" y="0" name="bottom"/>
  <anchor x="368" y="725" name="top"/>
  <anchor x="368" y="357" name="center"/>
  <anchor x="716" y="725" name="topright"/>
  <outline>
    <contour>
      <point x="522" y="402" type="line"/>
      <point x="220" y="402" type="line"/>
      <point x="220" y="324" type="line"/>
      <point x="522" y="324" type="line"/>
    </contour>
    <component base="O"/>
  </outline>
</glyph>
<glyph name="Lambda" format="2">
  <advance width="575"/>
  <unicode hex="039B"/>
  <anchor x="287" y="0" name="bottom"/>
  <anchor x="287" y="714" name="top"/>
  <outline>
    <contour>
      <point x="333" y="714" type="line"/>
      <point x="240" y="714" type="line"/>
      <point x="0" y="0" type="line"/>
      <point x="94" y="0" type="line"/>
      <point x="239" y="451" type="line" smooth="yes"/>
      <point x="258" y="511"/>
      <point x="276" y="568"/>
      <point x="286" y="616" type="curve"/>
      <point x="296" y="568"/>
      <point x="314" y="512"/>
      <point x="334" y="450" type="curve" smooth="yes"/>
      <point x="480" y="0" type="line"/>
      <point x="574" y="0" type="line"/>
    </contour>
  </outline>
</glyph>
<glyph name="Xi" format="2">
  <advance width="522"/>
  <unicode hex="039E"/>
  <anchor x="262" y="0" name="bottom"/>
  <anchor x="262" y="714" name="top"/>
  <outline>
    <contour>
      <point x="33" y="0" type="line"/>
      <point x="488" y="0" type="line"/>
      <point x="488" y="79" type="line"/>
      <point x="33" y="79" type="line"/>
    </contour>
    <contour>
      <point x="89" y="334" type="line"/>
      <point x="432" y="334" type="line"/>
      <point x="432" y="412" type="line"/>
      <point x="89" y="412" type="line"/>
    </contour>
    <contour>
      <point x="52" y="635" type="line"/>
      <point x="470" y="635" type="line"/>
      <point x="470" y="714" type="line"/>
      <point x="52" y="714" type="line"/>
    </contour>
  </outline>
</glyph>
<glyph name="Sigma" format="2">
  <advance width="537"/>
  <unicode hex="03A3"/>
  <anchor x="269" y="0" name="bottom"/>
  <anchor x="269" y="714" name="top"/>
  <outline>
    <contour>
      <point x="34" y="0" type="line"/>
      <point x="514" y="0" type="line"/>
      <point x="514" y="79" type="line"/>
      <point x="274" y="79" type="line" smooth="yes"/>
      <point x="225" y="79"/>
      <point x="178" y="78"/>
      <point x="131" y="78" type="curve"/>
      <point x="352" y="374" type="line"/>
      <point x="141" y="635" type="line"/>
      <point x="162" y="634"/>
      <point x="222" y="634"/>
      <point x="250" y="634" type="curve" smooth="yes"/>
      <point x="487" y="634" type="line"/>
      <point x="487" y="714" type="line"/>
      <point x="40" y="714" type="line"/>
      <point x="40" y="639" type="line"/>
      <point x="254" y="373" type="line"/>
      <point x="34" y="74" type="line"/>
    </contour>
  </outline>
</glyph>
<glyph name="Psi" format="2">
  <advance width="761"/>
  <unicode hex="03A8"/>
  <anchor x="381" y="0" name="bottom"/>
  <anchor x="381" y="714" name="top"/>
  <outline>
    <contour>
      <point x="711" y="714" type="line"/>
      <point x="621" y="714" type="line"/>
      <point x="621" y="478" type="line" smooth="yes"/>
      <point x="621" y="357"/>
      <point x="563" y="294"/>
      <point x="423" y="294" type="curve"/>
      <point x="423" y="714" type="line"/>
      <point x="337" y="714" type="line"/>
      <point x="337" y="294" type="line"/>
      <point x="199" y="294"/>
      <point x="138" y="356"/>
      <point x="138" y="480" type="curve" smooth="yes"/>
      <point x="138" y="714" type="line"/>
      <point x="50" y="714" type="line"/>
      <point x="50" y="478" type="line" smooth="yes"/>
      <point x="50" y="346"/>
      <point x="110" y="217"/>
      <point x="337" y="217" type="curve"/>
      <point x="337" y="0" type="line"/>
      <point x="423" y="0" type="line"/>
      <point x="423" y="217" type="line"/>
      <point x="648" y="217"/>
      <point x="711" y="343"/>
      <point x="711" y="479" type="curve" smooth="yes"/>
    </contour>
  </outline>
</glyph>
<glyph name="Omega" format="2">
  <advance width="735"/>
  <unicode hex="03A9"/>
  <anchor x="368" y="0" name="bottom"/>
  <anchor x="368" y="725" name="top"/>
  <anchor x="19" y="714" name="topleft"/>
  <outline>
    <contour>
      <point x="368" y="646" type="curve" smooth="yes"/>
      <point x="516" y="646"/>
      <point x="584" y="553"/>
      <point x="584" y="401" type="curve" smooth="yes"/>
      <point x="584" y="269"/>
      <point x="544" y="160"/>
      <point x="429" y="72" type="curve"/>
      <point x="429" y="0" type="line"/>
      <point x="701" y="0" type="line"/>
      <point x="701" y="79" type="line"/>
      <point x="535" y="79" type="line"/>
      <point x="615" y="144"/>
      <point x="677" y="255"/>
      <point x="677" y="405" type="curve" smooth="yes"/>
      <point x="677" y="601"/>
      <point x="567" y="725"/>
      <point x="368" y="725" type="curve" smooth="yes"/>
      <point x="171" y="725"/>
      <point x="59" y="600"/>
      <point x="59" y="404" type="curve" smooth="yes"/>
      <point x="59" y="255"/>
      <point x="122" y="144"/>
      <point x="203" y="79" type="curve"/>
      <point x="35" y="79" type="line"/>
      <point x="35" y="0" type="line"/>
      <point x="307" y="0" type="line"/>
      <point x="307" y="72" type="line"/>
      <point x="193" y="161"/>
      <point x="153" y="268"/>
      <point x="153" y="401" type="curve" smooth="yes"/>
      <point x="153" y="553"/>
      <point x="221" y="646"/>
    </contour>
  </outline>
</glyph>
<glyph name="beta" format="2">
  <advance width="595"/>
  <unicode hex="03B2"/>
  <anchor x="344" y="0" name="bottom"/>
  <anchor x="305" y="765" name="top"/>
  <anchor x="525" y="765" name="topright"/>
  <outline>
    <contour>
      <point x="305" y="765" type="curve" smooth="yes"/>
      <point x="175" y="765"/>
      <point x="79" y="696"/>
      <point x="79" y="535" type="curve" smooth="yes"/>
      <point x="79" y="-240" type="line"/>
      <point x="166" y="-240" type="line"/>
      <point x="166" y="24" type="line"/>
      <point x="206" y="3"/>
      <point x="252" y="-10"/>
      <point x="324" y="-10" type="curve" smooth="yes"/>
      <point x="468" y="-10"/>
      <point x="553" y="66"/>
      <point x="553" y="203" type="curve" smooth="yes"/>
      <point x="553" y="324"/>
      <point x="494" y="388"/>
      <point x="380" y="402" type="curve"/>
      <point x="380" y="406" type="line"/>
      <point x="472" y="422"/>
      <point x="523" y="478"/>
      <point x="523" y="574" type="curve" smooth="yes"/>
      <point x="523" y="701"/>
      <point x="432" y="765"/>
    </contour>
    <contour>
      <point x="303" y="692" type="curve" smooth="yes"/>
      <point x="382" y="692"/>
      <point x="434" y="652"/>
      <point x="434" y="570" type="curve" smooth="yes"/>
      <point x="434" y="489"/>
      <point x="392" y="435"/>
      <point x="296" y="435" type="curve" smooth="yes"/>
      <point x="257" y="435" type="line"/>
      <point x="257" y="361" type="line"/>
      <point x="306" y="361" type="line" smooth="yes"/>
      <point x="401" y="361"/>
      <point x="466" y="314"/>
      <point x="466" y="209" type="curve" smooth="yes"/>
      <point x="466" y="115"/>
      <point x="420" y="62"/>
      <point x="315" y="62" type="curve" smooth="yes"/>
      <point x="253" y="62"/>
      <point x="208" y="79"/>
      <point x="166" y="103" type="curve"/>
      <point x="166" y="531" type="line" smooth="yes"/>
      <point x="166" y="656"/>
      <point x="230" y="692"/>
    </contour>
  </outline>
</glyph>
<glyph name="gamma" format="2">
  <advance width="491"/>
  <unicode hex="03B3"/>
  <anchor x="245" y="-240" name="bottom"/>
  <anchor x="245" y="536" name="top"/>
  <anchor x="481" y="536" name="topright"/>
  <outline>
    <contour>
      <point x="487" y="536" type="line"/>
      <point x="397" y="536" type="line"/>
      <point x="298" y="251" type="line" smooth="yes"/>
      <point x="283" y="207"/>
      <point x="258" y="121"/>
      <point x="252" y="89" type="curve"/>
      <point x="248" y="89" type="line"/>
      <point x="243" y="124"/>
      <point x="218" y="203"/>
      <point x="199" y="255" type="curve" smooth="yes"/>
      <point x="95" y="536" type="line"/>
      <point x="4" y="536" type="line"/>
      <point x="207" y="6" type="line"/>
      <point x="179" y="-76"/>
      <point x="160" y="-185"/>
      <point x="160" y="-240" type="curve"/>
      <point x="253" y="-240" type="line"/>
      <point x="253" y="-173"/>
      <point x="271" y="-68"/>
      <point x="300" y="13" type="curve" smooth="yes"/>
    </contour>
  </outline>
</glyph>
<glyph name="delta" format="2">
  <advance width="569"/>
  <unicode hex="03B4"/>
  <anchor x="284" y="0" name="bottom"/>
  <anchor x="284" y="760" name="top"/>
  <outline>
    <contour>
      <point x="301" y="760" type="curve" smooth="yes"/>
      <point x="202" y="760"/>
      <point x="129" y="712"/>
      <point x="129" y="620" type="curve" smooth="yes"/>
      <point x="129" y="546"/>
      <point x="176" y="499"/>
      <point x="245" y="456" type="curve"/>
      <point x="134" y="421"/>
      <point x="50" y="342"/>
      <point x="50" y="214" type="curve" smooth="yes"/>
      <point x="50" y="71"/>
      <point x="147" y="-10"/>
      <point x="282" y="-10" type="curve" smooth="yes"/>
      <point x="425" y="-10"/>
      <point x="519" y="76"/>
      <point x="519" y="236" type="curve" smooth="yes"/>
      <point x="519" y="352"/>
      <point x="457" y="423"/>
      <point x="343" y="489" type="curve" smooth="yes"/>
      <point x="250" y="543"/>
      <point x="217" y="571"/>
      <point x="217" y="619" type="curve" smooth="yes"/>
      <point x="217" y="656"/>
      <point x="242" y="688"/>
      <point x="298" y="688" type="curve" smooth="yes"/>
      <point x="361" y="688"/>
      <point x="412" y="665"/>
      <point x="459" y="637" type="curve"/>
      <point x="497" y="706" type="line"/>
      <point x="446" y="732"/>
      <point x="388" y="760"/>
    </contour>
    <contour>
      <point x="312" y="418" type="curve"/>
      <point x="385" y="377"/>
      <point x="429" y="325"/>
      <point x="429" y="235" type="curve" smooth="yes"/>
      <point x="429" y="124"/>
      <point x="376" y="63"/>
      <point x="282" y="63" type="curve" smooth="yes"/>
      <point x="193" y="63"/>
      <point x="141" y="125"/>
      <point x="141" y="213" type="curve" smooth="yes"/>
      <point x="141" y="348"/>
      <point x="237" y="398"/>
    </contour>
  </outline>
</glyph>
<glyph name="zeta" format="2">
  <advance width="456"/>
  <unicode hex="03B6"/>
  <anchor x="228" y="-195" name="bottom"/>
  <anchor x="228" y="760" name="top"/>
  <outline>
    <contour>
      <point x="432" y="-40" type="curve" smooth="yes"/>
      <point x="432" y="17"/>
      <point x="396" y="52"/>
      <point x="298" y="74" type="curve" smooth="yes"/>
      <point x="199" y="96"/>
      <point x="141" y="116"/>
      <point x="141" y="230" type="curve" smooth="yes"/>
      <point x="141" y="336"/>
      <point x="173" y="463"/>
      <point x="432" y="694" type="curve"/>
      <point x="432" y="760" type="line"/>
      <point x="79" y="760" type="line"/>
      <point x="79" y="687" type="line"/>
      <point x="193" y="687" type="line" smooth="yes"/>
      <point x="254" y="687"/>
      <point x="320" y="690"/>
      <point x="330" y="691" type="curve"/>
      <point x="182" y="549"/>
      <point x="51" y="423"/>
      <point x="51" y="224" type="curve" smooth="yes"/>
      <point x="51" y="92"/>
      <point x="114" y="27"/>
      <point x="234" y="5" type="curve" smooth="yes"/>
      <point x="332" y="-13"/>
      <point x="345" y="-35"/>
      <point x="345" y="-63" type="curve" smooth="yes"/>
      <point x="345" y="-99"/>
      <point x="317" y="-153"/>
      <point x="286" y="-195" type="curve"/>
      <point x="373" y="-195" type="line"/>
      <point x="403" y="-153"/>
      <point x="432" y="-99"/>
    </contour>
  </outline>
</glyph>
<glyph name="theta" format="2">
  <advance width="561"/>
  <unicode hex="03B8"/>
  <anchor x="281" y="0" name="bottom"/>
  <anchor x="281" y="765" name="top"/>
  <anchor x="486" y="765" name="topright"/>
  <outline>
    <contour>
      <point x="510" y="377" type="curve" smooth="yes"/>
      <point x="510" y="623"/>
      <point x="436" y="765"/>
      <point x="279" y="765" type="curve" smooth="yes"/>
      <point x="115" y="765"/>
      <point x="51" y="621"/>
      <point x="51" y="377" type="curve" smooth="yes"/>
      <point x="51" y="135"/>
      <point x="123" y="-10"/>
      <point x="279" y="-10" type="curve" smooth="yes"/>
      <point x="446" y="-10"/>
      <point x="510" y="135"/>
    </contour>
    <contour>
      <point x="279" y="62" type="curve" smooth="yes"/>
      <point x="182" y="62"/>
      <point x="142" y="160"/>
      <point x="139" y="351" type="curve"/>
      <point x="422" y="351" type="line"/>
      <point x="418" y="158"/>
      <point x="375" y="62"/>
    </contour>
    <contour>
      <point x="279" y="693" type="curve" smooth="yes"/>
      <point x="373" y="693"/>
      <point x="414" y="602"/>
      <point x="421" y="424" type="curve"/>
      <point x="139" y="424" type="line"/>
      <point x="146" y="602"/>
      <point x="185" y="693"/>
    </contour>
  </outline>
</glyph>
<glyph name="lambda" format="2">
  <advance width="514"/>
  <unicode hex="03BB"/>
  <anchor x="257" y="0" name="bottom"/>
  <anchor x="257" y="766" name="top"/>
  <outline>
    <contour>
      <point x="-5" y="0" type="line"/>
      <point x="86" y="0" type="line"/>
      <point x="198" y="281" type="line" smooth="yes"/>
      <point x="219" y="333"/>
      <point x="238" y="388"/>
      <point x="249" y="435" type="curve"/>
      <point x="252" y="435" type="line"/>
      <point x="260" y="396"/>
      <point x="282" y="324"/>
      <point x="298" y="276" type="curve" smooth="yes"/>
      <point x="365" y="72" type="line" smooth="yes"/>
      <point x="384" y="13"/>
      <point x="410" y="-10"/>
      <point x="459" y="-10" type="curve" smooth="yes"/>
      <point x="480" y="-10"/>
      <point x="500" y="-5"/>
      <point x="514" y="2" type="curve"/>
      <point x="514" y="67" type="line"/>
      <point x="507" y="65"/>
      <point x="495" y="62"/>
      <point x="486" y="62" type="curve" smooth="yes"/>
      <point x="464" y="62"/>
      <point x="449" y="79"/>
      <point x="437" y="116" type="curve" smooth="yes"/>
      <point x="276" y="598" type="line" smooth="yes"/>
      <point x="238" y="713"/>
      <point x="205" y="766"/>
      <point x="106" y="766" type="curve" smooth="yes"/>
      <point x="84" y="766"/>
      <point x="60" y="762"/>
      <point x="43" y="758" type="curve"/>
      <point x="43" y="687" type="line"/>
      <point x="56" y="690"/>
      <point x="73" y="693"/>
      <point x="95" y="693" type="curve" smooth="yes"/>
      <point x="149" y="693"/>
      <point x="168" y="658"/>
      <point x="187" y="601" type="curve" smooth="yes"/>
      <point x="212" y="526" type="line"/>
    </contour>
  </outline>
</glyph>
<glyph name="nu" format="2">
  <advance width="517"/>
  <unicode hex="03BD"/>
  <anchor x="259" y="0" name="bottom"/>
  <anchor x="259" y="536" name="top"/>
  <outline>
    <contour>
      <point x="0" y="536" type="line"/>
      <point x="188" y="0" type="line"/>
      <point x="280" y="0" type="line"/>
      <point x="436" y="166"/>
      <point x="479" y="326"/>
      <point x="479" y="536" type="curve"/>
      <point x="393" y="536" type="line"/>
      <point x="393" y="342"/>
      <point x="359" y="199"/>
      <point x="247" y="74" type="curve"/>
      <point x="243" y="74" type="line"/>
      <point x="234" y="114"/>
      <point x="207" y="199"/>
      <point x="191" y="247" type="curve" smooth="yes"/>
      <point x="91" y="536" type="line"/>
    </contour>
  </outline>
</glyph>
<glyph name="xi" format="2">
  <advance width="450"/>
  <unicode hex="03BE"/>
  <anchor x="225" y="-195" name="bottom"/>
  <anchor x="251" y="760" name="top"/>
  <outline>
    <contour>
      <point x="50" y="206" type="curve" smooth="yes"/>
      <point x="50" y="91"/>
      <point x="114" y="27"/>
      <point x="237" y="5" type="curve" smooth="yes"/>
      <point x="335" y="-13"/>
      <point x="349" y="-35"/>
      <point x="349" y="-62" type="curve" smooth="yes"/>
      <point x="349" y="-99"/>
      <point x="322" y="-153"/>
      <point x="292" y="-195" type="curve"/>
      <point x="375" y="-195" type="line"/>
      <point x="403" y="-153"/>
      <point x="432" y="-99"/>
      <point x="432" y="-40" type="curve" smooth="yes"/>
      <point x="432" y="14"/>
      <point x="398" y="52"/>
      <point x="302" y="73" type="curve" smooth="yes"/>
      <point x="203" y="95"/>
      <point x="141" y="111"/>
      <point x="141" y="213" type="curve" smooth="yes"/>
      <point x="141" y="299"/>
      <point x="201" y="366"/>
      <point x="315" y="366" type="curve" smooth="yes"/>
      <point x="395" y="366" type="line"/>
      <point x="395" y="433" type="line"/>
      <point x="317" y="433" type="line" smooth="yes"/>
      <point x="207" y="433"/>
      <point x="166" y="471"/>
      <point x="166" y="539" type="curve" smooth="yes"/>
      <point x="166" y="641"/>
      <point x="276" y="692"/>
      <point x="382" y="692" type="curve" smooth="yes"/>
      <point x="408" y="692" type="line"/>
      <point x="408" y="760" type="line"/>
      <point x="79" y="760" type="line"/>
      <point x="79" y="687" type="line"/>
      <point x="106" y="687" type="line" smooth="yes"/>
      <point x="152" y="687"/>
      <point x="196" y="690"/>
      <point x="220" y="693" type="curve"/>
      <point x="144" y="670"/>
      <point x="82" y="631"/>
      <point x="82" y="537" type="curve" smooth="yes"/>
      <point x="82" y="461"/>
      <point x="119" y="420"/>
      <point x="181" y="401" type="curve"/>
      <point x="181" y="395" type="line"/>
      <point x="111" y="372"/>
      <point x="50" y="306"/>
    </contour>
  </outline>
</glyph>
<glyph name="pi" format="2">
  <advance width="625"/>
  <unicode hex="03C0"/>
  <anchor x="313" y="0" name="bottom"/>
  <anchor x="313" y="536" name="top"/>
  <outline>
    <contour>
      <point x="538" y="62" type="curve" smooth="yes"/>
      <point x="513" y="62"/>
      <point x="495" y="77"/>
      <point x="495" y="124" type="curve" smooth="yes"/>
      <point x="495" y="463" type="line"/>
      <point x="595" y="463" type="line"/>
      <point x="595" y="536" type="line"/>
      <point x="80" y="536" type="line"/>
      <point x="11" y="501" type="line"/>
      <point x="11" y="463" type="line"/>
      <point x="114" y="463" type="line"/>
      <point x="114" y="0" type="line"/>
      <point x="200" y="0" type="line"/>
      <point x="200" y="463" type="line"/>
      <point x="409" y="463" type="line"/>
      <point x="409" y="118" type="line" smooth="yes"/>
      <point x="409" y="33"/>
      <point x="446" y="-10"/>
      <point x="516" y="-10" type="curve" smooth="yes"/>
      <point x="546" y="-10"/>
      <point x="570" y="-3"/>
      <point x="581" y="3" type="curve"/>
      <point x="581" y="72" type="line"/>
      <point x="571" y="67"/>
      <point x="556" y="62"/>
    </contour>
  </outline>
</glyph>
<glyph name="rho" format="2">
  <advance width="570"/>
  <unicode hex="03C1"/>
  <anchor x="285" y="-240" name="bottom"/>
  <anchor x="285" y="536" name="top"/>
  <outline>
    <contour>
      <point x="519" y="268" type="curve" smooth="yes"/>
      <point x="519" y="448"/>
      <point x="428" y="546"/>
      <point x="299" y="546" type="curve" smooth="yes"/>
      <point x="161" y="546"/>
      <point x="73" y="457"/>
      <point x="73" y="275" type="curve" smooth="yes"/>
      <point x="73" y="-240" type="line"/>
      <point x="161" y="-240" type="line"/>
      <point x="161" y="-98" type="line" smooth="yes"/>
      <point x="161" y="-38"/>
      <point x="159" y="13"/>
      <point x="156" y="35" type="curve"/>
      <point x="161" y="35" type="line"/>
      <point x="197" y="6"/>
      <point x="246" y="-10"/>
      <point x="297" y="-10" type="curve" smooth="yes"/>
      <point x="434" y="-10"/>
      <point x="519" y="87"/>
    </contour>
    <contour>
      <point x="295" y="472" type="curve" smooth="yes"/>
      <point x="390" y="472"/>
      <point x="430" y="405"/>
      <point x="430" y="268" type="curve" smooth="yes"/>
      <point x="430" y="133"/>
      <point x="390" y="63"/>
      <point x="294" y="63" type="curve" smooth="yes"/>
      <point x="244" y="63"/>
      <point x="196" y="79"/>
      <point x="161" y="112" type="curve"/>
      <point x="161" y="274" type="line" smooth="yes"/>
      <point x="161" y="406"/>
      <point x="204" y="472"/>
    </contour>
  </outline>
</glyph>
<glyph name="sigma1" format="2">
  <advance width="456"/>
  <unicode hex="03C2"/>
  <anchor x="228" y="-195" name="bottom"/>
  <anchor x="267" y="536" name="top"/>
  <outline>
    <contour>
      <point x="295" y="546" type="curve" smooth="yes"/>
      <point x="151" y="546"/>
      <point x="51" y="455"/>
      <point x="51" y="253" type="curve" smooth="yes"/>
      <point x="51" y="87"/>
      <point x="132" y="27"/>
      <point x="237" y="6" type="curve" smooth="yes"/>
      <point x="335" y="-14"/>
      <point x="350" y="-34"/>
      <point x="350" y="-62" type="curve" smooth="yes"/>
      <point x="350" y="-99"/>
      <point x="322" y="-153"/>
      <point x="292" y="-195" type="curve"/>
      <point x="375" y="-195" type="line"/>
      <point x="403" y="-155"/>
      <point x="432" y="-99"/>
      <point x="432" y="-40" type="curve" smooth="yes"/>
      <point x="432" y="15"/>
      <point x="399" y="52"/>
      <point x="301" y="74" type="curve" smooth="yes"/>
      <point x="173" y="103"/>
      <point x="141" y="135"/>
      <point x="141" y="254" type="curve" smooth="yes"/>
      <point x="141" y="394"/>
      <point x="184" y="469"/>
      <point x="291" y="469" type="curve" smooth="yes"/>
      <point x="332" y="469"/>
      <point x="372" y="457"/>
      <point x="406" y="444" type="curve"/>
      <point x="433" y="517" type="line"/>
      <point x="397" y="533"/>
      <point x="345" y="546"/>
    </contour>
  </outline>
</glyph>
<glyph name="sigma" format="2">
  <advance width="582"/>
  <unicode hex="03C3"/>
  <anchor x="292" y="0" name="bottom"/>
  <anchor x="292" y="536" name="top"/>
  <outline>
    <contour>
      <point x="519" y="246" type="curve" smooth="yes"/>
      <point x="519" y="342"/>
      <point x="486" y="414"/>
      <point x="437" y="463" type="curve"/>
      <point x="560" y="463" type="line"/>
      <point x="560" y="536" type="line"/>
      <point x="326" y="536" type="line" smooth="yes"/>
      <point x="158" y="536"/>
      <point x="51" y="457"/>
      <point x="51" y="256" type="curve" smooth="yes"/>
      <point x="51" y="83"/>
      <point x="144" y="-10"/>
      <point x="284" y="-10" type="curve" smooth="yes"/>
      <point x="439" y="-10"/>
      <point x="519" y="101"/>
    </contour>
    <contour>
      <point x="141" y="256" type="curve" smooth="yes"/>
      <point x="141" y="407"/>
      <point x="201" y="463"/>
      <point x="325" y="463" type="curve" smooth="yes"/>
      <point x="354" y="463" type="line"/>
      <point x="403" y="405"/>
      <point x="430" y="330"/>
      <point x="430" y="244" type="curve" smooth="yes"/>
      <point x="430" y="139"/>
      <point x="387" y="63"/>
      <point x="286" y="63" type="curve" smooth="yes"/>
      <point x="183" y="63"/>
      <point x="141" y="143"/>
    </contour>
  </outline>
</glyph>
<glyph name="tau" format="2">
  <advance width="454"/>
  <unicode hex="03C4"/>
  <anchor x="228" y="-11" name="bottom"/>
  <anchor x="228" y="536" name="top"/>
  <outline>
    <contour>
      <point x="428" y="536" type="line"/>
      <point x="80" y="536" type="line"/>
      <point x="10" y="501" type="line"/>
      <point x="10" y="462" type="line"/>
      <point x="145" y="462" type="line"/>
      <point x="145" y="155" type="line" smooth="yes"/>
      <point x="145" y="21"/>
      <point x="220" y="-11"/>
      <point x="307" y="-11" type="curve" smooth="yes"/>
      <point x="345" y="-11"/>
      <point x="383" y="-3"/>
      <point x="401" y="5" type="curve"/>
      <point x="401" y="71" type="line"/>
      <point x="381" y="65"/>
      <point x="348" y="60"/>
      <point x="321" y="60" type="curve" smooth="yes"/>
      <point x="269" y="60"/>
      <point x="233" y="87"/>
      <point x="233" y="164" type="curve" smooth="yes"/>
      <point x="233" y="462" type="line"/>
      <point x="428" y="462" type="line"/>
    </contour>
  </outline>
</glyph>
<glyph name="upsilon" format="2">
  <advance width="579"/>
  <unicode hex="03C5"/>
  <anchor x="290" y="0" name="bottom"/>
  <anchor x="290" y="536" name="top"/>
  <outline>
    <contour>
      <point x="290" y="-10" type="curve" smooth="yes"/>
      <point x="447" y="-10"/>
      <point x="528" y="85"/>
      <point x="528" y="292" type="curve" smooth="yes"/>
      <point x="528" y="391"/>
      <point x="518" y="457"/>
      <point x="498" y="536" type="curve"/>
      <point x="411" y="536" type="line"/>
      <point x="430" y="456"/>
      <point x="440" y="389"/>
      <point x="440" y="296" type="curve" smooth="yes"/>
      <point x="440" y="136"/>
      <point x="394" y="62"/>
      <point x="296" y="62" type="curve" smooth="yes"/>
      <point x="202" y="62"/>
      <point x="161" y="132"/>
      <point x="161" y="246" type="curve" smooth="yes"/>
      <point x="161" y="536" type="line"/>
      <point x="74" y="536" type="line"/>
      <point x="74" y="243" type="line" smooth="yes"/>
      <point x="74" y="100"/>
      <point x="121" y="-10"/>
    </contour>
  </outline>
</glyph>
<glyph name="psi" format="2">
  <advance width="721"/>
  <unicode hex="03C8"/>
  <anchor x="361" y="-240" name="bottom"/>
  <anchor x="361" y="759" name="top"/>
  <outline>
    <contour>
      <point x="406" y="759" type="line"/>
      <point x="321" y="759" type="line"/>
      <point x="321" y="64" type="line"/>
      <point x="233" y="71"/>
      <point x="160" y="116"/>
      <point x="160" y="267" type="curve" smooth="yes"/>
      <point x="160" y="536" type="line"/>
      <point x="74" y="536" type="line"/>
      <point x="74" y="270" type="line" smooth="yes"/>
      <point x="74" y="71"/>
      <point x="177" y="-3"/>
      <point x="321" y="-9" type="curve"/>
      <point x="321" y="-240" type="line"/>
      <point x="406" y="-240" type="line"/>
      <point x="406" y="-9" type="line"/>
      <point x="548" y="0"/>
      <point x="664" y="77"/>
      <point x="664" y="283" type="curve" smooth="yes"/>
      <point x="664" y="371"/>
      <point x="655" y="446"/>
      <point x="635" y="536" type="curve"/>
      <point x="549" y="536" type="line"/>
      <point x="569" y="443"/>
      <point x="580" y="372"/>
      <point x="580" y="280" type="curve" smooth="yes"/>
      <point x="580" y="139"/>
      <point x="511" y="75"/>
      <point x="406" y="65" type="curve"/>
    </contour>
  </outline>
</glyph>
<glyph name="uni03D2" format="2">
  <advance width="542"/>
  <unicode hex="03D2"/>
  <anchor x="267" y="714" name="top"/>
  <outline>
    <contour>
      <point x="266" y="357" type="curve"/>
      <point x="97" y="714" type="line"/>
      <point x="0" y="714" type="line"/>
      <point x="219" y="273" type="line"/>
      <point x="219" y="0" type="line"/>
      <point x="309" y="0" type="line"/>
      <point x="309" y="265" type="line"/>
      <point x="351" y="387"/>
      <point x="424" y="541"/>
      <point x="453" y="594" type="curve" smooth="yes"/>
      <point x="477" y="638"/>
      <point x="492" y="645"/>
      <point x="510" y="645" type="curve" smooth="yes"/>
      <point x="519" y="645"/>
      <point x="530" y="644"/>
      <point x="537" y="642" type="curve"/>
      <point x="537" y="712" type="line"/>
      <point x="526" y="717"/>
      <point x="512" y="720"/>
      <point x="492" y="720" type="curve" smooth="yes"/>
      <point x="442" y="720"/>
      <point x="414" y="695"/>
      <point x="387" y="644" type="curve" smooth="yes"/>
      <point x="356" y="585"/>
      <point x="306" y="455"/>
    </contour>
  </outline>
</glyph>
<glyph name="uni03D7" format="2">
  <advance width="611"/>
  <unicode hex="03D7"/>
  <outline>
    <contour>
      <point x="490" y="-240" type="curve" smooth="yes"/>
      <point x="566" y="-240"/>
      <point x="602" y="-193"/>
      <point x="602" y="-107" type="curve" smooth="yes"/>
      <point x="602" y="71" type="line"/>
      <point x="592" y="67"/>
      <point x="575" y="63"/>
      <point x="560" y="63" type="curve" smooth="yes"/>
      <point x="510" y="63"/>
      <point x="477" y="99"/>
      <point x="477" y="216" type="curve" smooth="yes"/>
      <point x="477" y="342"/>
      <point x="514" y="462"/>
      <point x="549" y="536" type="curve"/>
      <point x="463" y="536" type="line"/>
      <point x="205" y="186" type="line"/>
      <point x="217" y="228"/>
      <point x="221" y="275"/>
      <point x="221" y="316" type="curve" smooth="yes"/>
      <point x="221" y="474"/>
      <point x="165" y="546"/>
      <point x="67" y="546" type="curve" smooth="yes"/>
      <point x="36" y="546"/>
      <point x="12" y="541"/>
      <point x="-5" y="534" type="curve"/>
      <point x="18" y="465" type="line"/>
      <point x="26" y="469"/>
      <point x="37" y="473"/>
      <point x="54" y="473" type="curve" smooth="yes"/>
      <point x="98" y="473"/>
      <point x="135" y="432"/>
      <point x="135" y="320" type="curve" smooth="yes"/>
      <point x="135" y="194"/>
      <point x="100" y="74"/>
      <point x="66" y="0" type="curve"/>
      <point x="154" y="0" type="line"/>
      <point x="408" y="350" type="line"/>
      <point x="396" y="309"/>
      <point x="392" y="261"/>
      <point x="392" y="220" type="curve" smooth="yes"/>
      <point x="392" y="70"/>
      <point x="440" y="-2"/>
      <point x="524" y="-9" type="curve"/>
      <point x="524" y="-112" type="line" smooth="yes"/>
      <point x="524" y="-148"/>
      <point x="507" y="-164"/>
      <point x="479" y="-164" type="curve" smooth="yes"/>
      <point x="459" y="-164"/>
      <point x="443" y="-159"/>
      <point x="432" y="-155" type="curve"/>
      <point x="432" y="-228" type="line"/>
      <point x="445" y="-233"/>
      <point x="466" y="-240"/>
    </contour>
  </outline>
</glyph>
<glyph name="uni03DA" format="2">
  <advance width="578"/>
  <unicode hex="03DA"/>
  <anchor x="289" y="0" name="bottom"/>
  <anchor x="289" y="714" name="top"/>
  <outline>
    <contour>
      <point x="369" y="724" type="curve" smooth="yes"/>
      <point x="164" y="724"/>
      <point x="57" y="606"/>
      <point x="57" y="435" type="curve" smooth="yes"/>
      <point x="57" y="271"/>
      <point x="144" y="165"/>
      <point x="319" y="150" type="curve"/>
      <point x="319" y="0" type="line"/>
      <point x="408" y="0" type="line"/>
      <point x="408" y="224" type="line"/>
      <point x="378" y="224" type="line" smooth="yes"/>
      <point x="226" y="224"/>
      <point x="151" y="305"/>
      <point x="151" y="434" type="curve" smooth="yes"/>
      <point x="151" y="562"/>
      <point x="224" y="645"/>
      <point x="370" y="645" type="curve" smooth="yes"/>
      <point x="437" y="645"/>
      <point x="485" y="627"/>
      <point x="533" y="604" type="curve"/>
      <point x="565" y="682" type="line"/>
      <point x="509" y="708"/>
      <point x="447" y="724"/>
    </contour>
  </outline>
</glyph>
<glyph name="uni03DB" format="2">
  <advance width="456"/>
  <unicode hex="03DB"/>
  <anchor x="228" y="-205" name="bottom"/>
  <anchor x="228" y="536" name="top"/>
  <outline>
    <contour>
      <point x="277" y="-205" type="curve" smooth="yes"/>
      <point x="371" y="-205"/>
      <point x="432" y="-152"/>
      <point x="432" y="-63" type="curve" smooth="yes"/>
      <point x="432" y="2"/>
      <point x="399" y="52"/>
      <point x="301" y="74" type="curve" smooth="yes"/>
      <point x="173" y="103"/>
      <point x="141" y="135"/>
      <point x="141" y="254" type="curve" smooth="yes"/>
      <point x="141" y="394"/>
      <point x="185" y="469"/>
      <point x="292" y="469" type="curve" smooth="yes"/>
      <point x="334" y="469"/>
      <point x="373" y="457"/>
      <point x="407" y="444" type="curve"/>
      <point x="435" y="517" type="line"/>
      <point x="399" y="533"/>
      <point x="347" y="546"/>
      <point x="295" y="546" type="curve" smooth="yes"/>
      <point x="152" y="546"/>
      <point x="51" y="455"/>
      <point x="51" y="253" type="curve" smooth="yes"/>
      <point x="51" y="87"/>
      <point x="132" y="27"/>
      <point x="237" y="6" type="curve" smooth="yes"/>
      <point x="325" y="-12"/>
      <point x="350" y="-23"/>
      <point x="350" y="-71" type="curve" smooth="yes"/>
      <point x="350" y="-113"/>
      <point x="326" y="-139"/>
      <point x="260" y="-139" type="curve" smooth="yes"/>
      <point x="225" y="-139"/>
      <point x="195" y="-133"/>
      <point x="158" y="-123" type="curve"/>
      <point x="158" y="-191" type="line"/>
      <point x="197" y="-202"/>
      <point x="236" y="-205"/>
    </contour>
  </outline>
</glyph>
<glyph name="uni03F1" format="2">
  <advance width="570"/>
  <unicode hex="03F1"/>
  <anchor x="285" y="-240" name="bottom"/>
  <anchor x="285" y="536" name="top"/>
  <outline>
    <contour>
      <point x="299" y="546" type="curve" smooth="yes"/>
      <point x="133" y="546"/>
      <point x="51" y="409"/>
      <point x="51" y="178" type="curve" smooth="yes"/>
      <point x="51" y="-107"/>
      <point x="116" y="-191"/>
      <point x="265" y="-191" type="curve" smooth="yes"/>
      <point x="341" y="-191"/>
      <point x="350" y="-197"/>
      <point x="350" y="-217" type="curve" smooth="yes"/>
      <point x="350" y="-225"/>
      <point x="349" y="-231"/>
      <point x="346" y="-240" type="curve"/>
      <point x="423" y="-240" type="line"/>
      <point x="428" y="-221"/>
      <point x="432" y="-210"/>
      <point x="432" y="-191" type="curve" smooth="yes"/>
      <point x="432" y="-136"/>
      <point x="404" y="-118"/>
      <point x="279" y="-118" type="curve" smooth="yes"/>
      <point x="192" y="-118"/>
      <point x="157" y="-89"/>
      <point x="144" y="52" type="curve"/>
      <point x="148" y="52" type="line"/>
      <point x="192" y="8"/>
      <point x="225" y="-10"/>
      <point x="297" y="-10" type="curve" smooth="yes"/>
      <point x="433" y="-10"/>
      <point x="519" y="87"/>
      <point x="519" y="268" type="curve" smooth="yes"/>
      <point x="519" y="448"/>
      <point x="428" y="546"/>
    </contour>
    <contour>
      <point x="295" y="473" type="curve" smooth="yes"/>
      <point x="390" y="473"/>
      <point x="430" y="405"/>
      <point x="430" y="268" type="curve" smooth="yes"/>
      <point x="430" y="133"/>
      <point x="390" y="63"/>
      <point x="294" y="63" type="curve" smooth="yes"/>
      <point x="231" y="63"/>
      <point x="189" y="79"/>
      <point x="141" y="125" type="curve"/>
      <point x="140" y="142"/>
      <point x="139" y="158"/>
      <point x="139" y="179" type="curve" smooth="yes"/>
      <point x="139" y="388"/>
      <point x="201" y="473"/>
    </contour>
  </outline>
</glyph>
<glyph name="uni03FC" format="2">
  <advance width="569"/>
  <unicode hex="03FC"/>
  <anchor x="285" y="-240" name="bottom"/>
  <anchor x="285" y="536" name="top"/>
  <outline>
    <contour>
      <point x="72" y="-240" type="line"/>
      <point x="160" y="-240" type="line"/>
      <point x="160" y="-156" type="line"/>
      <point x="340" y="-156" type="line"/>
      <point x="340" y="-86" type="line"/>
      <point x="160" y="-86" type="line"/>
      <point x="159" y="-31"/>
      <point x="158" y="14"/>
      <point x="156" y="35" type="curve"/>
      <point x="160" y="35" type="line"/>
      <point x="196" y="6"/>
      <point x="246" y="-10"/>
      <point x="296" y="-10" type="curve" smooth="yes"/>
      <point x="433" y="-10"/>
      <point x="518" y="87"/>
      <point x="518" y="268" type="curve" smooth="yes"/>
      <point x="518" y="448"/>
      <point x="427" y="546"/>
      <point x="299" y="546" type="curve" smooth="yes"/>
      <point x="160" y="546"/>
      <point x="72" y="457"/>
      <point x="72" y="275" type="curve" smooth="yes"/>
      <point x="72" y="-86" type="line"/>
      <point x="3" y="-86" type="line"/>
      <point x="3" y="-156" type="line"/>
      <point x="72" y="-156" type="line"/>
    </contour>
    <contour>
      <point x="293" y="63" type="curve" smooth="yes"/>
      <point x="243" y="63"/>
      <point x="195" y="79"/>
      <point x="160" y="112" type="curve"/>
      <point x="160" y="274" type="line" smooth="yes"/>
      <point x="160" y="406"/>
      <point x="204" y="472"/>
      <point x="295" y="472" type="curve" smooth="yes"/>
      <point x="390" y="472"/>
      <point x="429" y="405"/>
      <point x="429" y="268" type="curve" smooth="yes"/>
      <point x="429" y="133"/>
      <point x="390" y="63"/>
    </contour>
  </outline>
</glyph>
<glyph name="afii10044" format="2">
  <advance width="654"/>
  <unicode hex="042A"/>
  <anchor x="327" y="0" name="bottom"/>
  <anchor x="327" y="714" name="top"/>
  <outline>
    <contour>
      <point x="164" y="0" type="line"/>
      <point x="365" y="0" type="line" smooth="yes"/>
      <point x="531" y="0"/>
      <point x="606" y="83"/>
      <point x="606" y="209" type="curve" smooth="yes"/>
      <point x="606" y="322"/>
      <point x="543" y="412"/>
      <point x="355" y="412" type="curve" smooth="yes"/>
      <point x="252" y="412" type="line"/>
      <point x="252" y="714" type="line"/>
      <point x="7" y="714" type="line"/>
      <point x="7" y="635" type="line"/>
      <point x="164" y="635" type="line"/>
    </contour>
    <contour>
      <point x="252" y="77" type="line"/>
      <point x="252" y="334" type="line"/>
      <point x="343" y="334" type="line" smooth="yes"/>
      <point x="458" y="334"/>
      <point x="514" y="301"/>
      <point x="514" y="209" type="curve" smooth="yes"/>
      <point x="514" y="120"/>
      <point x="464" y="77"/>
      <point x="356" y="77" type="curve" smooth="yes"/>
    </contour>
  </outline>
</glyph>
<glyph name="uni0488" format="2">
  <advance width="930"/>
  <unicode hex="0488"/>
  <outline>
    <contour>
      <point x="630" y="462" type="curve"/>
      <point x="665" y="462" type="line"/>
      <point x="669" y="501"/>
      <point x="688" y="505"/>
      <point x="726" y="505" type="curve" smooth="yes"/>
      <point x="757" y="505"/>
      <point x="783" y="499"/>
      <point x="787" y="462" type="curve"/>
      <point x="824" y="462" type="line"/>
      <point x="820" y="518"/>
      <point x="786" y="557"/>
      <point x="726" y="557" type="curve" smooth="yes"/>
      <point x="663" y="557"/>
      <point x="633" y="520"/>
    </contour>
    <contour>
      <point x="101" y="-20" type="curve"/>
      <point x="136" y="-20" type="line"/>
      <point x="139" y="19"/>
      <point x="159" y="23"/>
      <point x="197" y="23" type="curve" smooth="yes"/>
      <point x="228" y="23"/>
      <point x="254" y="17"/>
      <point x="258" y="-20" type="curve"/>
      <point x="294" y="-20" type="line"/>
      <point x="291" y="36"/>
      <point x="257" y="75"/>
      <point x="197" y="75" type="curve" smooth="yes"/>
      <point x="134" y="75"/>
      <point x="104" y="38"/>
    </contour>
    <contour>
      <point x="364" y="-156" type="curve"/>
      <point x="399" y="-156" type="line"/>
      <point x="403" y="-117"/>
      <point x="422" y="-113"/>
      <point x="460" y="-113" type="curve" smooth="yes"/>
      <point x="491" y="-113"/>
      <point x="517" y="-119"/>
      <point x="521" y="-156" type="curve"/>
      <point x="558" y="-156" type="line"/>
      <point x="554" y="-100"/>
      <point x="520" y="-61"/>
      <point x="460" y="-61" type="curve" smooth="yes"/>
      <point x="397" y="-61"/>
      <point x="367" y="-98"/>
    </contour>
    <contour>
      <point x="19" y="224" type="curve"/>
      <point x="54" y="224" type="line"/>
      <point x="58" y="263"/>
      <point x="77" y="267"/>
      <point x="115" y="267" type="curve" smooth="yes"/>
      <point x="146" y="267"/>
      <point x="172" y="261"/>
      <point x="176" y="224" type="curve"/>
      <point x="213" y="224" type="line"/>
      <point x="209" y="280"/>
      <point x="175" y="319"/>
      <point x="115" y="319" type="curve" smooth="yes"/>
      <point x="52" y="319"/>
      <point x="22" y="282"/>
    </contour>
    <contour>
      <point x="101" y="462" type="curve"/>
      <point x="136" y="462" type="line"/>
      <point x="139" y="501"/>
      <point x="159" y="505"/>
      <point x="197" y="505" type="curve" smooth="yes"/>
      <point x="228" y="505"/>
      <point x="254" y="499"/>
      <point x="258" y="462" type="curve"/>
      <point x="294" y="462" type="line"/>
      <point x="291" y="518"/>
      <point x="257" y="557"/>
      <point x="197" y="557" type="curve" smooth="yes"/>
      <point x="134" y="557"/>
      <point x="104" y="520"/>
    </contour>
    <contour>
      <point x="630" y="-20" type="curve"/>
      <point x="665" y="-20" type="line"/>
      <point x="669" y="19"/>
      <point x="688" y="23"/>
      <point x="726" y="23" type="curve" smooth="yes"/>
      <point x="757" y="23"/>
      <point x="783" y="17"/>
      <point x="787" y="-20" type="curve"/>
      <point x="824" y="-20" type="line"/>
      <point x="820" y="36"/>
      <point x="786" y="75"/>
      <point x="726" y="75" type="curve" smooth="yes"/>
      <point x="663" y="75"/>
      <point x="633" y="38"/>
    </contour>
    <contour>
      <point x="717" y="224" type="curve"/>
      <point x="752" y="224" type="line"/>
      <point x="756" y="263"/>
      <point x="776" y="267"/>
      <point x="813" y="267" type="curve" smooth="yes"/>
      <point x="844" y="267"/>
      <point x="871" y="261"/>
      <point x="874" y="224" type="curve"/>
      <point x="911" y="224" type="line"/>
      <point x="907" y="280"/>
      <point x="873" y="319"/>
      <point x="813" y="319" type="curve" smooth="yes"/>
      <point x="750" y="319"/>
      <point x="720" y="282"/>
    </contour>
    <contour>
      <point x="364" y="601" type="curve"/>
      <point x="399" y="601" type="line"/>
      <point x="403" y="640"/>
      <point x="422" y="644"/>
      <point x="460" y="644" type="curve" smooth="yes"/>
      <point x="491" y="644"/>
      <point x="517" y="638"/>
      <point x="521" y="601" type="curve"/>
      <point x="558" y="601" type="line"/>
      <point x="554" y="657"/>
      <point x="520" y="696"/>
      <point x="460" y="696" type="curve" smooth="yes"/>
      <point x="397" y="696"/>
      <point x="367" y="659"/>
    </contour>
  </outline>
</glyph>
<glyph name="uni0489" format="2">
  <advance width="899"/>
  <unicode hex="0489"/>
  <outline>
    <contour>
      <point x="758" y="579" type="line"/>
      <point x="709" y="559"/>
      <point x="652" y="531"/>
      <point x="609" y="505" type="curve"/>
      <point x="608" y="497" type="line"/>
      <point x="654" y="449" type="line"/>
      <point x="690" y="478"/>
      <point x="745" y="516"/>
      <point x="790" y="546" type="curve"/>
    </contour>
    <contour>
      <point x="246" y="70" type="line"/>
      <point x="209" y="41"/>
      <point x="154" y="3"/>
      <point x="109" y="-27" type="curve"/>
      <point x="141" y="-60" type="line"/>
      <point x="190" y="-40"/>
      <point x="247" y="-12"/>
      <point x="290" y="14" type="curve"/>
      <point x="291" y="22" type="line"/>
    </contour>
    <contour>
      <point x="19" y="323" type="curve"/>
      <point x="19" y="276" type="line"/>
      <point x="67" y="253"/>
      <point x="126" y="229"/>
      <point x="173" y="216" type="curve"/>
      <point x="180" y="221" type="line"/>
      <point x="180" y="289" type="line"/>
      <point x="135" y="296"/>
      <point x="71" y="310"/>
    </contour>
    <contour>
      <point x="496" y="-17" type="line"/>
      <point x="432" y="-17" type="line"/>
      <point x="425" y="-65"/>
      <point x="412" y="-133"/>
      <point x="400" y="-188" type="curve"/>
      <point x="444" y="-188" type="line"/>
      <point x="466" y="-137"/>
      <point x="488" y="-74"/>
      <point x="500" y="-24" type="curve"/>
    </contour>
    <contour>
      <point x="672" y="90" type="line"/>
      <point x="627" y="42" type="line"/>
      <point x="654" y="3"/>
      <point x="690" y="-55"/>
      <point x="718" y="-103" type="curve"/>
      <point x="749" y="-69" type="line"/>
      <point x="731" y="-17"/>
      <point x="704" y="44"/>
      <point x="680" y="89" type="curve"/>
    </contour>
    <contour>
      <point x="180" y="621" type="curve"/>
      <point x="149" y="587" type="line"/>
      <point x="168" y="535"/>
      <point x="194" y="474"/>
      <point x="218" y="429" type="curve"/>
      <point x="226" y="428" type="line"/>
      <point x="271" y="476" type="line"/>
      <point x="244" y="515"/>
      <point x="208" y="573"/>
    </contour>
    <contour>
      <point x="726" y="323" type="curve"/>
      <point x="719" y="318" type="line"/>
      <point x="719" y="250" type="line"/>
      <point x="764" y="243"/>
      <point x="828" y="229"/>
      <point x="880" y="216" type="curve"/>
      <point x="880" y="263" type="line"/>
      <point x="832" y="286"/>
      <point x="773" y="310"/>
    </contour>
    <contour>
      <point x="500" y="728" type="curve"/>
      <point x="456" y="728" type="line"/>
      <point x="434" y="677"/>
      <point x="412" y="614"/>
      <point x="400" y="564" type="curve"/>
      <point x="404" y="557" type="line"/>
      <point x="468" y="557" type="line"/>
      <point x="475" y="605"/>
      <point x="488" y="673"/>
    </contour>
  </outline>
</glyph>
<glyph name="uni052A" format="2">
  <advance width="1370"/>
  <unicode hex="052A"/>
  <anchor x="696" y="-188" name="bottom"/>
  <anchor x="696" y="714" name="top"/>
  <outline>
    <contour>
      <point x="544" y="401" type="line"/>
      <point x="544" y="329" type="line"/>
      <point x="886" y="329" type="line"/>
      <point x="886" y="401" type="line"/>
    </contour>
    <component base="afii10021"/>
    <component base="afii10028" xOffset="785"/>
  </outline>
</glyph>
<glyph name="uni052B" format="2">
  <advance width="1136"/>
  <unicode hex="052B"/>
  <anchor x="577" y="-186" name="bottom"/>
  <anchor x="577" y="536" name="top"/>
  <outline>
    <contour>
      <point x="448" y="313" type="line"/>
      <point x="448" y="248" type="line"/>
      <point x="730" y="248" type="line"/>
      <point x="730" y="313" type="line"/>
    </contour>
    <component base="afii10069"/>
    <component base="afii10076" xOffset="635"/>
  </outline>
</glyph>
<glyph name="uni052E" format="2">
  <advance width="690"/>
  <unicode hex="052E"/>
  <anchor x="360" y="-192" name="bottom"/>
  <anchor x="360" y="714" name="top"/>
  <outline>
    <contour>
      <point x="535" y="0" type="line"/>
      <point x="583" y="0" type="line"/>
      <point x="583" y="-192" type="line"/>
      <point x="670" y="-192" type="line"/>
      <point x="670" y="77" type="line"/>
      <point x="573" y="77" type="line"/>
    </contour>
    <component base="afii10029"/>
  </outline>
</glyph>
<glyph name="uni052F" format="2">
  <advance width="568"/>
  <unicode hex="052F"/>
  <anchor x="300" y="-186" name="bottom"/>
  <anchor x="300" y="536" name="top"/>
  <outline>
    <contour>
      <point x="418" y="0" type="line"/>
      <point x="470" y="0" type="line"/>
      <point x="470" y="-186" type="line"/>
      <point x="551" y="-186" type="line"/>
      <point x="551" y="70" type="line"/>
      <point x="470" y="70" type="line"/>
    </contour>
    <component base="afii10077"/>
  </outline>
</glyph>
<glyph name="uni1ABA" format="2">
  <unicode hex="1ABA"/>
  <anchor x="-4" y="90" name="_bottom"/>
  <anchor x="-2" y="-233" name="bottom"/>
  <outline>
    <contour>
      <point x="27" y="40" type="line"/>
      <point x="-77" y="-196" type="line"/>
      <point x="-31" y="-211" type="line"/>
      <point x="81" y="40" type="line"/>
    </contour>
    <contour>
      <point x="-88" y="-179" type="curve"/>
      <point x="-88" y="-216"/>
      <point x="-68" y="-233"/>
      <point x="-41" y="-233" type="curve" smooth="yes"/>
      <point x="-15" y="-233"/>
      <point x="5" y="-214"/>
      <point x="5" y="-179" type="curve" smooth="yes"/>
      <point x="5" y="-143"/>
      <point x="-15" y="-124"/>
      <point x="-41" y="-124" type="curve" smooth="yes"/>
      <point x="-68" y="-124"/>
      <point x="-88" y="-142"/>
    </contour>
  </outline>
</glyph>
<glyph name="uni1D0F" format="2">
  <advance width="596"/>
  <unicode hex="1D0F"/>
  <anchor x="298" y="0" name="bottom"/>
  <anchor x="298" y="536" name="top"/>
  <outline>
    <contour>
      <point x="541" y="269" type="curve" smooth="yes"/>
      <point x="541" y="435"/>
      <point x="457" y="544"/>
      <point x="299" y="544" type="curve" smooth="yes"/>
      <point x="134" y="544"/>
      <point x="55" y="434"/>
      <point x="55" y="269" type="curve" smooth="yes"/>
      <point x="55" y="104"/>
      <point x="134" y="-7"/>
      <point x="298" y="-7" type="curve" smooth="yes"/>
      <point x="457" y="-7"/>
      <point x="541" y="103"/>
    </contour>
    <contour>
      <point x="145" y="269" type="curve" smooth="yes"/>
      <point x="145" y="396"/>
      <point x="193" y="472"/>
      <point x="299" y="472" type="curve" smooth="yes"/>
      <point x="404" y="472"/>
      <point x="452" y="396"/>
      <point x="452" y="269" type="curve" smooth="yes"/>
      <point x="452" y="142"/>
      <point x="404" y="64"/>
      <point x="298" y="64" type="curve" smooth="yes"/>
      <point x="193" y="64"/>
      <point x="145" y="142"/>
    </contour>
  </outline>
</glyph>
<glyph name="uni1D24" format="2">
  <advance width="433"/>
  <unicode hex="1D24"/>
  <anchor x="217" y="0" name="bottom"/>
  <anchor x="217" y="536" name="top"/>
  <outline>
    <contour>
      <point x="231" y="-7" type="curve" smooth="yes"/>
      <point x="290" y="-7"/>
      <point x="344" y="7"/>
      <point x="380" y="25" type="curve"/>
      <point x="380" y="104" type="line"/>
      <point x="339" y="86"/>
      <point x="280" y="64"/>
      <point x="229" y="64" type="curve" smooth="yes"/>
      <point x="162" y="64"/>
      <point x="127" y="88"/>
      <point x="127" y="131" type="curve" smooth="yes"/>
      <point x="127" y="176"/>
      <point x="156" y="203"/>
      <point x="256" y="214" type="curve"/>
      <point x="256" y="271" type="line"/>
      <point x="342" y="300"/>
      <point x="386" y="342"/>
      <point x="386" y="413" type="curve" smooth="yes"/>
      <point x="386" y="490"/>
      <point x="327" y="543"/>
      <point x="219" y="543" type="curve" smooth="yes"/>
      <point x="168" y="543"/>
      <point x="117" y="530"/>
      <point x="75" y="510" type="curve"/>
      <point x="96" y="439" type="line"/>
      <point x="134" y="456"/>
      <point x="172" y="471"/>
      <point x="215" y="471" type="curve" smooth="yes"/>
      <point x="274" y="471"/>
      <point x="300" y="446"/>
      <point x="300" y="409" type="curve" smooth="yes"/>
      <point x="300" y="361"/>
      <point x="268" y="340"/>
      <point x="185" y="327" type="curve"/>
      <point x="185" y="274" type="line"/>
      <point x="89" y="249"/>
      <point x="42" y="206"/>
      <point x="42" y="130" type="curve" smooth="yes"/>
      <point x="42" y="36"/>
      <point x="114" y="-7"/>
    </contour>
  </outline>
</glyph>
<glyph name="uni1D3B" format="2">
  <advance width="467"/>
  <unicode hex="1D3B"/>
  <anchor x="233" y="287" name="bottom"/>
  <anchor x="233" y="715" name="top"/>
  <anchor x="455" y="715" name="topright"/>
  <outline>
    <contour>
      <point x="59" y="287" type="line"/>
      <point x="127" y="287" type="line"/>
      <point x="357" y="643" type="line"/>
      <point x="360" y="643" type="line"/>
      <point x="358" y="615"/>
      <point x="355" y="570"/>
      <point x="355" y="526" type="curve" smooth="yes"/>
      <point x="355" y="287" type="line"/>
      <point x="408" y="287" type="line"/>
      <point x="408" y="715" type="line"/>
      <point x="340" y="715" type="line"/>
      <point x="111" y="361" type="line"/>
      <point x="108" y="361" type="line"/>
      <point x="110" y="380"/>
      <point x="113" y="435"/>
      <point x="113" y="474" type="curve" smooth="yes"/>
      <point x="113" y="715" type="line"/>
      <point x="59" y="715" type="line"/>
    </contour>
  </outline>
</glyph>
<glyph name="uni1D7A" format="2">
  <advance width="979"/>
  <unicode hex="1D7A"/>
  <anchor x="204" y="0" name="bottom_1"/>
  <anchor x="654" y="0" name="bottom_2"/>
  <anchor x="173" y="268" name="center_1"/>
  <anchor x="653" y="268" name="center_2"/>
  <anchor x="148" y="659" name="top_1"/>
  <anchor x="485" y="760" name="top_2"/>
  <anchor x="320" y="659" name="topright_1"/>
  <anchor x="866" y="760" name="topright_2"/>
  <outline>
    <contour>
      <point x="36" y="-75" type="line"/>
      <point x="113" y="-75" type="line"/>
      <point x="774" y="760" type="line"/>
      <point x="697" y="760" type="line"/>
    </contour>
    <component base="t"/>
    <component base="h" xOffset="361"/>
  </outline>
</glyph>
<glyph name="uni1D7B" format="2">
  <advance width="304"/>
  <unicode hex="1D7B"/>
  <anchor x="152" y="0" name="bottom"/>
  <anchor x="152" y="536" name="top"/>
  <outline>
    <contour>
      <point x="271" y="319" type="line"/>
      <point x="33" y="319" type="line"/>
      <point x="33" y="248" type="line"/>
      <point x="271" y="248" type="line"/>
    </contour>
    <component base="uni026A"/>
  </outline>
</glyph>
<glyph name="uni1D7C" format="2">
  <advance width="330"/>
  <unicode hex="1D7C"/>
  <anchor x="198" y="0" name="bottom"/>
  <anchor x="125" y="536" name="top"/>
  <outline>
    <contour>
      <point x="282" y="319" type="line"/>
      <point x="5" y="319" type="line"/>
      <point x="5" y="248" type="line"/>
      <point x="282" y="248" type="line"/>
    </contour>
    <component base="iota"/>
  </outline>
</glyph>
<glyph name="uni1D7D" format="2">
  <advance width="615"/>
  <unicode hex="1D7D"/>
  <anchor x="123" y="-240" name="bottom"/>
  <anchor x="312" y="536" name="top"/>
  <anchor x="552" y="536" name="topright"/>
  <outline>
    <contour>
      <point x="614" y="319" type="line"/>
      <point x="10" y="319" type="line"/>
      <point x="10" y="249" type="line"/>
      <point x="614" y="249" type="line"/>
    </contour>
    <component base="p"/>
  </outline>
</glyph>
<glyph name="uni1D7F" format="2">
  <advance width="572"/>
  <unicode hex="1D7F"/>
  <anchor x="287" y="0" name="bottom"/>
  <anchor x="287" y="536" name="top"/>
  <outline>
    <contour>
      <point x="581" y="319" type="line"/>
      <point x="-4" y="319" type="line"/>
      <point x="-4" y="249" type="line"/>
      <point x="581" y="249" type="line"/>
    </contour>
    <component base="uni028A"/>
  </outline>
</glyph>
<glyph name="uni1DFC" format="2">
  <unicode hex="1DFC"/>
  <outline>
    <contour>
      <point x="316" y="-217" type="line"/>
      <point x="304" y="-96"/>
      <point x="184" y="-52"/>
      <point x="0" y="-52" type="curve" smooth="yes"/>
      <point x="-194" y="-52"/>
      <point x="-304" y="-104"/>
      <point x="-316" y="-217" type="curve"/>
      <point x="-254" y="-217" type="line"/>
      <point x="-242" y="-131"/>
      <point x="-128" y="-122"/>
      <point x="1" y="-122" type="curve" smooth="yes"/>
      <point x="111" y="-122"/>
      <point x="239" y="-138"/>
      <point x="252" y="-217" type="curve"/>
    </contour>
  </outline>
</glyph>
<glyph name="uni1FBD" format="2">
  <advance width="244"/>
  <unicode hex="1FBD"/>
  <anchor x="117" y="536" name="_top"/>
  <outline>
    <contour>
      <point x="67" y="596" type="line"/>
      <point x="141" y="604"/>
      <point x="172" y="644"/>
      <point x="172" y="715" type="curve" smooth="yes"/>
      <point x="172" y="749"/>
      <point x="154" y="774"/>
      <point x="123" y="774" type="curve" smooth="yes"/>
      <point x="95" y="774"/>
      <point x="74" y="760"/>
      <point x="74" y="726" type="curve" smooth="yes"/>
      <point x="74" y="694"/>
      <point x="95" y="679"/>
      <point x="123" y="679" type="curve" smooth="yes"/>
      <point x="117" y="661"/>
      <point x="98" y="635"/>
      <point x="67" y="633" type="curve"/>
    </contour>
  </outline>
</glyph>
<glyph name="uni1FBE" format="2">
  <advance width="542"/>
  <unicode hex="1FBE"/>
  <outline>
    <contour>
      <point x="305" y="-116" type="curve" smooth="yes"/>
      <point x="305" y="-62" type="line"/>
      <point x="232" y="-62" type="line"/>
      <point x="232" y="-125" type="line" smooth="yes"/>
      <point x="232" y="-191"/>
      <point x="262" y="-220"/>
      <point x="308" y="-220" type="curve" smooth="yes"/>
      <point x="334" y="-220"/>
      <point x="356" y="-215"/>
      <point x="366" y="-211" type="curve"/>
      <point x="366" y="-153" type="line"/>
      <point x="359" y="-155"/>
      <point x="346" y="-158"/>
      <point x="335" y="-158" type="curve" smooth="yes"/>
      <point x="313" y="-158"/>
      <point x="305" y="-145"/>
    </contour>
  </outline>
</glyph>
<glyph name="uni1FC1" format="2">
  <advance width="545"/>
  <unicode hex="1FC1"/>
  <outline>
    <contour>
      <point x="110" y="745" type="curve"/>
      <point x="154" y="745" type="line"/>
      <point x="163" y="775"/>
      <point x="176" y="794"/>
      <point x="205" y="794" type="curve" smooth="yes"/>
      <point x="246" y="794"/>
      <point x="295" y="746"/>
      <point x="347" y="746" type="curve" smooth="yes"/>
      <point x="407" y="746"/>
      <point x="438" y="791"/>
      <point x="446" y="860" type="curve"/>
      <point x="402" y="860" type="line"/>
      <point x="393" y="830"/>
      <point x="380" y="811"/>
      <point x="351" y="811" type="curve" smooth="yes"/>
      <point x="312" y="811"/>
      <point x="265" y="859"/>
      <point x="209" y="859" type="curve" smooth="yes"/>
      <point x="149" y="859"/>
      <point x="117" y="815"/>
    </contour>
    <contour>
      <point x="183" y="616" type="curve" smooth="yes"/>
      <point x="208" y="616"/>
      <point x="229" y="632"/>
      <point x="229" y="666" type="curve" smooth="yes"/>
      <point x="229" y="701"/>
      <point x="208" y="715"/>
      <point x="183" y="715" type="curve" smooth="yes"/>
      <point x="158" y="715"/>
      <point x="138" y="701"/>
      <point x="138" y="666" type="curve" smooth="yes"/>
      <point x="138" y="632"/>
      <point x="158" y="616"/>
    </contour>
    <contour>
      <point x="360" y="616" type="curve" smooth="yes"/>
      <point x="384" y="616"/>
      <point x="405" y="632"/>
      <point x="405" y="666" type="curve" smooth="yes"/>
      <point x="405" y="701"/>
      <point x="384" y="715"/>
      <point x="360" y="715" type="curve" smooth="yes"/>
      <point x="335" y="715"/>
      <point x="315" y="701"/>
      <point x="315" y="666" type="curve" smooth="yes"/>
      <point x="315" y="632"/>
      <point x="335" y="616"/>
    </contour>
  </outline>
</glyph>
<glyph name="uni1FCD" format="2">
  <advance width="542"/>
  <unicode hex="1FCD"/>
  <anchor x="268" y="536" name="_top"/>
  <anchor x="274" y="774" name="top"/>
  <outline>
    <contour>
      <point x="358" y="606" type="curve"/>
      <point x="399" y="606" type="line"/>
      <point x="399" y="618" type="line"/>
      <point x="385" y="658"/>
      <point x="367" y="718"/>
      <point x="357" y="764" type="curve"/>
      <point x="264" y="764" type="line"/>
      <point x="264" y="754" type="line"/>
      <point x="284" y="712"/>
      <point x="322" y="653"/>
    </contour>
    <contour>
      <point x="145" y="596" type="line"/>
      <point x="219" y="604"/>
      <point x="250" y="644"/>
      <point x="250" y="715" type="curve" smooth="yes"/>
      <point x="250" y="749"/>
      <point x="232" y="774"/>
      <point x="201" y="774" type="curve" smooth="yes"/>
      <point x="173" y="774"/>
      <point x="152" y="760"/>
      <point x="152" y="726" type="curve" smooth="yes"/>
      <point x="152" y="694"/>
      <point x="173" y="679"/>
      <point x="200" y="679" type="curve"/>
      <point x="195" y="662"/>
      <point x="182" y="638"/>
      <point x="145" y="633" type="curve"/>
    </contour>
  </outline>
</glyph>
<glyph name="uni1FCE" format="2">
  <advance width="542"/>
  <unicode hex="1FCE"/>
  <anchor x="272" y="536" name="_top"/>
  <anchor x="295" y="774" name="top"/>
  <outline>
    <contour>
      <point x="288" y="606" type="line"/>
      <point x="329" y="606" type="line"/>
      <point x="365" y="653"/>
      <point x="403" y="712"/>
      <point x="423" y="754" type="curve"/>
      <point x="423" y="764" type="line"/>
      <point x="330" y="764" type="line"/>
      <point x="320" y="718"/>
      <point x="302" y="658"/>
      <point x="288" y="618" type="curve"/>
    </contour>
    <contour>
      <point x="164" y="596" type="line"/>
      <point x="238" y="604"/>
      <point x="269" y="644"/>
      <point x="269" y="715" type="curve" smooth="yes"/>
      <point x="269" y="749"/>
      <point x="251" y="774"/>
      <point x="220" y="774" type="curve" smooth="yes"/>
      <point x="192" y="774"/>
      <point x="171" y="760"/>
      <point x="171" y="726" type="curve" smooth="yes"/>
      <point x="171" y="694"/>
      <point x="192" y="679"/>
      <point x="219" y="679" type="curve"/>
      <point x="216" y="671"/>
      <point x="204" y="636"/>
      <point x="164" y="633" type="curve"/>
    </contour>
  </outline>
</glyph>
<glyph name="uni1FCF" format="2">
  <advance width="558"/>
  <unicode hex="1FCF"/>
  <anchor x="273" y="536" name="_top"/>
  <anchor x="281" y="860" name="top"/>
  <outline>
    <contour>
      <point x="111" y="745" type="curve"/>
      <point x="155" y="745" type="line"/>
      <point x="164" y="775"/>
      <point x="177" y="794"/>
      <point x="206" y="794" type="curve" smooth="yes"/>
      <point x="247" y="794"/>
      <point x="296" y="746"/>
      <point x="348" y="746" type="curve" smooth="yes"/>
      <point x="408" y="746"/>
      <point x="439" y="791"/>
      <point x="447" y="860" type="curve"/>
      <point x="403" y="860" type="line"/>
      <point x="394" y="830"/>
      <point x="381" y="811"/>
      <point x="352" y="811" type="curve" smooth="yes"/>
      <point x="313" y="811"/>
      <point x="266" y="859"/>
      <point x="210" y="859" type="curve" smooth="yes"/>
      <point x="150" y="859"/>
      <point x="118" y="815"/>
    </contour>
    <contour>
      <point x="222" y="586" type="line"/>
      <point x="298" y="593"/>
      <point x="326" y="626"/>
      <point x="326" y="681" type="curve" smooth="yes"/>
      <point x="326" y="718"/>
      <point x="306" y="733"/>
      <point x="277" y="733" type="curve" smooth="yes"/>
      <point x="245" y="733"/>
      <point x="228" y="717"/>
      <point x="228" y="690" type="curve" smooth="yes"/>
      <point x="228" y="658"/>
      <point x="250" y="648"/>
      <point x="277" y="648" type="curve" smooth="yes"/>
      <point x="271" y="636"/>
      <point x="252" y="620"/>
      <point x="222" y="619" type="curve"/>
    </contour>
  </outline>
</glyph>
<glyph name="uni1FDD" format="2">
  <advance width="542"/>
  <unicode hex="1FDD"/>
  <anchor x="260" y="536" name="_top"/>
  <anchor x="263" y="774" name="top"/>
  <outline>
    <contour>
      <point x="344" y="606" type="curve"/>
      <point x="386" y="606" type="line"/>
      <point x="386" y="618" type="line"/>
      <point x="372" y="658"/>
      <point x="353" y="718"/>
      <point x="344" y="764" type="curve"/>
      <point x="251" y="764" type="line"/>
      <point x="251" y="754" type="line"/>
      <point x="271" y="712"/>
      <point x="309" y="653"/>
    </contour>
    <contour>
      <point x="241" y="596" type="curve"/>
      <point x="241" y="633" type="line"/>
      <point x="199" y="636"/>
      <point x="185" y="657"/>
      <point x="185" y="679" type="curve"/>
      <point x="213" y="679"/>
      <point x="234" y="694"/>
      <point x="234" y="726" type="curve" smooth="yes"/>
      <point x="234" y="760"/>
      <point x="213" y="774"/>
      <point x="185" y="774" type="curve" smooth="yes"/>
      <point x="154" y="774"/>
      <point x="136" y="749"/>
      <point x="136" y="715" type="curve" smooth="yes"/>
      <point x="136" y="644"/>
      <point x="167" y="604"/>
    </contour>
  </outline>
</glyph>
<glyph name="uni1FDE" format="2">
  <advance width="542"/>
  <unicode hex="1FDE"/>
  <outline>
    <contour>
      <point x="287" y="618" type="curve"/>
      <point x="287" y="606" type="line"/>
      <point x="328" y="606" type="line"/>
      <point x="364" y="653"/>
      <point x="402" y="712"/>
      <point x="421" y="754" type="curve"/>
      <point x="421" y="764" type="line"/>
      <point x="329" y="764" type="line"/>
      <point x="319" y="718"/>
      <point x="300" y="658"/>
    </contour>
    <contour>
      <point x="267" y="596" type="curve"/>
      <point x="267" y="633" type="line"/>
      <point x="225" y="636"/>
      <point x="211" y="657"/>
      <point x="211" y="679" type="curve"/>
      <point x="231" y="682"/>
      <point x="260" y="698"/>
      <point x="260" y="726" type="curve" smooth="yes"/>
      <point x="260" y="760"/>
      <point x="239" y="774"/>
      <point x="211" y="774" type="curve" smooth="yes"/>
      <point x="180" y="774"/>
      <point x="162" y="749"/>
      <point x="162" y="715" type="curve" smooth="yes"/>
      <point x="162" y="644"/>
      <point x="193" y="604"/>
    </contour>
  </outline>
</glyph>
<glyph name="uni1FDF" format="2">
  <advance width="558"/>
  <unicode hex="1FDF"/>
  <anchor x="284" y="536" name="_top"/>
  <anchor x="281" y="860" name="top"/>
  <outline>
    <contour>
      <point x="111" y="745" type="curve"/>
      <point x="155" y="745" type="line"/>
      <point x="164" y="775"/>
      <point x="177" y="794"/>
      <point x="206" y="794" type="curve" smooth="yes"/>
      <point x="247" y="794"/>
      <point x="296" y="746"/>
      <point x="348" y="746" type="curve" smooth="yes"/>
      <point x="408" y="746"/>
      <point x="439" y="791"/>
      <point x="447" y="860" type="curve"/>
      <point x="403" y="860" type="line"/>
      <point x="394" y="830"/>
      <point x="381" y="811"/>
      <point x="352" y="811" type="curve" smooth="yes"/>
      <point x="313" y="811"/>
      <point x="266" y="859"/>
      <point x="210" y="859" type="curve" smooth="yes"/>
      <point x="150" y="859"/>
      <point x="118" y="815"/>
    </contour>
    <contour>
      <point x="329" y="586" type="curve"/>
      <point x="329" y="619" type="line"/>
      <point x="288" y="621"/>
      <point x="274" y="634"/>
      <point x="274" y="648" type="curve" smooth="yes"/>
      <point x="295" y="652"/>
      <point x="323" y="667"/>
      <point x="323" y="690" type="curve" smooth="yes"/>
      <point x="323" y="717"/>
      <point x="306" y="733"/>
      <point x="274" y="733" type="curve" smooth="yes"/>
      <point x="245" y="733"/>
      <point x="225" y="718"/>
      <point x="225" y="681" type="curve" smooth="yes"/>
      <point x="225" y="626"/>
      <point x="253" y="593"/>
    </contour>
  </outline>
</glyph>
<glyph name="uni1FED" format="2">
  <advance width="542"/>
  <unicode hex="1FED"/>
  <anchor x="270" y="536" name="_top"/>
  <outline>
    <contour>
      <point x="320" y="618" type="line"/>
      <point x="320" y="630" type="line"/>
      <point x="306" y="670"/>
      <point x="287" y="732"/>
      <point x="278" y="778" type="curve"/>
      <point x="186" y="778" type="line"/>
      <point x="186" y="768" type="line"/>
      <point x="205" y="726"/>
      <point x="243" y="665"/>
      <point x="278" y="618" type="curve"/>
    </contour>
    <contour>
      <point x="113" y="661" type="curve" smooth="yes"/>
      <point x="113" y="627"/>
      <point x="132" y="611"/>
      <point x="157" y="611" type="curve" smooth="yes"/>
      <point x="182" y="611"/>
      <point x="202" y="627"/>
      <point x="202" y="661" type="curve" smooth="yes"/>
      <point x="202" y="696"/>
      <point x="182" y="710"/>
      <point x="157" y="710" type="curve" smooth="yes"/>
      <point x="132" y="710"/>
      <point x="113" y="696"/>
    </contour>
    <contour>
      <point x="341" y="661" type="curve" smooth="yes"/>
      <point x="341" y="627"/>
      <point x="360" y="611"/>
      <point x="386" y="611" type="curve" smooth="yes"/>
      <point x="409" y="611"/>
      <point x="430" y="627"/>
      <point x="430" y="661" type="curve" smooth="yes"/>
      <point x="430" y="696"/>
      <point x="409" y="710"/>
      <point x="386" y="710" type="curve" smooth="yes"/>
      <point x="360" y="710"/>
      <point x="341" y="696"/>
    </contour>
  </outline>
</glyph>
<glyph name="uni1FEE" format="2">
  <advance width="542"/>
  <unicode hex="1FEE"/>
  <outline>
    <contour>
      <point x="224" y="630" type="curve"/>
      <point x="224" y="618" type="line"/>
      <point x="265" y="618" type="line"/>
      <point x="300" y="665"/>
      <point x="338" y="726"/>
      <point x="358" y="768" type="curve"/>
      <point x="358" y="778" type="line"/>
      <point x="266" y="778" type="line"/>
      <point x="257" y="732"/>
      <point x="238" y="670"/>
    </contour>
    <contour>
      <point x="157" y="611" type="curve" smooth="yes"/>
      <point x="182" y="611"/>
      <point x="202" y="627"/>
      <point x="202" y="661" type="curve" smooth="yes"/>
      <point x="202" y="696"/>
      <point x="182" y="710"/>
      <point x="157" y="710" type="curve" smooth="yes"/>
      <point x="132" y="710"/>
      <point x="113" y="696"/>
      <point x="113" y="661" type="curve" smooth="yes"/>
      <point x="113" y="627"/>
      <point x="132" y="611"/>
    </contour>
    <contour>
      <point x="386" y="611" type="curve" smooth="yes"/>
      <point x="409" y="611"/>
      <point x="430" y="627"/>
      <point x="430" y="661" type="curve" smooth="yes"/>
      <point x="430" y="696"/>
      <point x="409" y="710"/>
      <point x="386" y="710" type="curve" smooth="yes"/>
      <point x="360" y="710"/>
      <point x="341" y="696"/>
      <point x="341" y="661" type="curve" smooth="yes"/>
      <point x="341" y="627"/>
      <point x="360" y="611"/>
    </contour>
  </outline>
</glyph>
<glyph name="uni1FEF" format="2">
  <advance width="543"/>
  <unicode hex="1FEF"/>
  <anchor x="281" y="536" name="_top"/>
  <anchor x="254" y="764" name="top"/>
  <outline>
    <contour>
      <point x="319" y="606" type="line"/>
      <point x="319" y="618" type="line"/>
      <point x="305" y="658"/>
      <point x="286" y="718"/>
      <point x="277" y="764" type="curve"/>
      <point x="184" y="764" type="line"/>
      <point x="184" y="754" type="line"/>
      <point x="204" y="712"/>
      <point x="242" y="653"/>
      <point x="277" y="606" type="curve"/>
    </contour>
  </outline>
</glyph>
<glyph name="uni1FFD" format="2">
  <advance width="543"/>
  <unicode hex="1FFD"/>
  <anchor x="251" y="536" name="_top"/>
  <anchor x="294" y="764" name="top"/>
  <outline>
    <contour>
      <point x="224" y="606" type="line"/>
      <point x="265" y="606" type="line"/>
      <point x="301" y="653"/>
      <point x="339" y="712"/>
      <point x="359" y="754" type="curve"/>
      <point x="359" y="764" type="line"/>
      <point x="266" y="764" type="line"/>
      <point x="257" y="718"/>
      <point x="238" y="658"/>
      <point x="224" y="618" type="curve"/>
    </contour>
  </outline>
</glyph>
<glyph name="uni1FFE" format="2">
  <advance width="244"/>
  <unicode hex="1FFE"/>
  <anchor x="128" y="536" name="_top"/>
  <anchor x="126" y="774" name="top"/>
  <outline>
    <contour>
      <point x="177" y="596" type="curve"/>
      <point x="177" y="633" type="line"/>
      <point x="135" y="636"/>
      <point x="121" y="657"/>
      <point x="121" y="679" type="curve" smooth="yes"/>
      <point x="142" y="685"/>
      <point x="170" y="703"/>
      <point x="170" y="726" type="curve" smooth="yes"/>
      <point x="170" y="760"/>
      <point x="149" y="774"/>
      <point x="121" y="774" type="curve" smooth="yes"/>
      <point x="90" y="774"/>
      <point x="72" y="749"/>
      <point x="72" y="715" type="curve" smooth="yes"/>
      <point x="72" y="644"/>
      <point x="103" y="604"/>
    </contour>
  </outline>
</glyph>
<glyph name="uni2023" format="2">
  <advance width="346"/>
  <unicode hex="2023"/>
  <outline>
    <contour>
      <point x="63" y="226" type="line"/>
      <point x="311" y="373" type="line"/>
      <point x="63" y="519" type="line"/>
    </contour>
  </outline>
</glyph>
<glyph name="plussuperior" format="2">
  <advance width="319"/>
  <unicode hex="207A"/>
  <outline>
    <contour>
      <point x="134" y="318" type="line"/>
      <point x="185" y="318" type="line"/>
      <point x="185" y="429" type="line"/>
      <point x="286" y="429" type="line"/>
      <point x="286" y="481" type="line"/>
      <point x="185" y="481" type="line"/>
      <point x="185" y="592" type="line"/>
      <point x="134" y="592" type="line"/>
      <point x="134" y="481" type="line"/>
      <point x="33" y="481" type="line"/>
      <point x="33" y="429" type="line"/>
      <point x="134" y="429" type="line"/>
    </contour>
  </outline>
</glyph>
<glyph name="parenleftsuperior" format="2">
  <advance width="214"/>
  <unicode hex="207D"/>
  <outline>
    <contour>
      <point x="37" y="499" type="curve" smooth="yes"/>
      <point x="37" y="388"/>
      <point x="68" y="295"/>
      <point x="123" y="231" type="curve"/>
      <point x="187" y="231" type="line"/>
      <point x="127" y="304"/>
      <point x="97" y="402"/>
      <point x="97" y="499" type="curve" smooth="yes"/>
      <point x="97" y="599"/>
      <point x="128" y="695"/>
      <point x="187" y="767" type="curve"/>
      <point x="123" y="767" type="line"/>
      <point x="67" y="698"/>
      <point x="37" y="610"/>
    </contour>
  </outline>
</glyph>
<glyph name="parenrightsuperior" format="2">
  <advance width="214"/>
  <unicode hex="207E"/>
  <outline>
    <contour>
      <point x="177" y="501" type="curve" smooth="yes"/>
      <point x="177" y="604"/>
      <point x="147" y="698"/>
      <point x="91" y="767" type="curve"/>
      <point x="27" y="767" type="line"/>
      <point x="86" y="695"/>
      <point x="117" y="600"/>
      <point x="117" y="500" type="curve" smooth="yes"/>
      <point x="117" y="403"/>
      <point x="88" y="304"/>
      <point x="27" y="231" type="curve"/>
      <point x="91" y="231" type="line"/>
      <point x="145" y="300"/>
      <point x="177" y="389"/>
    </contour>
  </outline>
</glyph>
<glyph name="uni20A5" format="2">
  <advance width="935"/>
  <unicode hex="20A5"/>
  <anchor x="444" y="0" name="bottom"/>
  <anchor x="451" y="536" name="top"/>
  <anchor x="835" y="536" name="topright"/>
  <outline>
    <contour>
      <point x="651" y="666" type="line"/>
      <point x="581" y="666" type="line"/>
      <point x="220" y="-110" type="line"/>
      <point x="290" y="-110" type="line"/>
    </contour>
    <component base="m"/>
  </outline>
</glyph>
<glyph name="uni20A9" format="2">
  <advance width="634"/>
  <unicode hex="20A9"/>
  <outline>
    <contour>
      <point x="134" y="0" type="line"/>
      <point x="221" y="0" type="line"/>
      <point x="263" y="257" type="line"/>
      <point x="373" y="257" type="line"/>
      <point x="418" y="0" type="line"/>
      <point x="506" y="0" type="line"/>
      <point x="546" y="257" type="line"/>
      <point x="625" y="257" type="line"/>
      <point x="625" y="321" type="line"/>
      <point x="556" y="321" type="line"/>
      <point x="568" y="403" type="line"/>
      <point x="625" y="403" type="line"/>
      <point x="625" y="467" type="line"/>
      <point x="579" y="467" type="line"/>
      <point x="617" y="714" type="line"/>
      <point x="540" y="714" type="line"/>
      <point x="506" y="467" type="line"/>
      <point x="406" y="467" type="line"/>
      <point x="362" y="714" type="line"/>
      <point x="273" y="714" type="line"/>
      <point x="230" y="467" type="line"/>
      <point x="131" y="467" type="line"/>
      <point x="94" y="714" type="line"/>
      <point x="17" y="714" type="line"/>
      <point x="57" y="467" type="line"/>
      <point x="9" y="467" type="line"/>
      <point x="9" y="403" type="line"/>
      <point x="67" y="403" type="line"/>
      <point x="80" y="321" type="line"/>
      <point x="9" y="321" type="line"/>
      <point x="9" y="257" type="line"/>
      <point x="92" y="257" type="line"/>
    </contour>
    <contour>
      <point x="178" y="108" type="line"/>
      <point x="160" y="257" type="line"/>
      <point x="197" y="257" type="line"/>
    </contour>
    <contour>
      <point x="460" y="104" type="line"/>
      <point x="442" y="257" type="line"/>
      <point x="478" y="257" type="line"/>
    </contour>
    <contour>
      <point x="298" y="467" type="line"/>
      <point x="318" y="620" type="line"/>
      <point x="338" y="467" type="line"/>
    </contour>
    <contour>
      <point x="152" y="321" type="line"/>
      <point x="141" y="403" type="line"/>
      <point x="219" y="403" type="line"/>
      <point x="208" y="321" type="line"/>
    </contour>
    <contour>
      <point x="275" y="321" type="line"/>
      <point x="288" y="403" type="line"/>
      <point x="349" y="403" type="line"/>
      <point x="362" y="321" type="line"/>
    </contour>
    <contour>
      <point x="431" y="321" type="line"/>
      <point x="417" y="403" type="line"/>
      <point x="497" y="403" type="line"/>
      <point x="487" y="321" type="line"/>
    </contour>
  </outline>
</glyph>
<glyph name="uni214E" format="2">
  <advance width="414"/>
  <unicode hex="214E"/>
  <outline>
    <contour>
      <point x="28" y="0" type="line"/>
      <point x="334" y="0" type="line"/>
      <point x="334" y="536" type="line"/>
      <point x="246" y="536" type="line"/>
      <point x="246" y="315" type="line"/>
      <point x="42" y="315" type="line"/>
      <point x="42" y="243" type="line"/>
      <point x="246" y="243" type="line"/>
      <point x="246" y="72" type="line"/>
      <point x="28" y="72" type="line"/>
    </contour>
  </outline>
</glyph>
<glyph name="uni2C65" format="2">
  <advance width="561"/>
  <unicode hex="2C65"/>
  <anchor x="236" y="-208" name="bottom"/>
  <anchor x="266" y="760" name="top"/>
  <anchor x="484" y="536" name="topright"/>
  <outline>
    <contour>
      <point x="153" y="-208" type="line"/>
      <point x="458" y="760" type="line"/>
      <point x="391" y="760" type="line"/>
      <point x="86" y="-208" type="line"/>
    </contour>
    <component base="a"/>
  </outline>
</glyph>
<glyph name="uni2C68" format="2">
  <advance width="616"/>
  <unicode hex="2C68"/>
  <anchor x="293" y="-186" name="bottom"/>
  <anchor x="124" y="760" name="top"/>
  <anchor x="292" y="268" name="center"/>
  <anchor x="505" y="760" name="topright"/>
  <outline>
    <contour>
      <point x="507" y="74" type="line"/>
      <point x="440" y="0" type="line"/>
      <point x="509" y="0" type="line"/>
      <point x="509" y="-186" type="line"/>
      <point x="596" y="-186" type="line"/>
      <point x="596" y="74" type="line"/>
    </contour>
    <component base="h"/>
  </outline>
</glyph>
<glyph name="uni2C6A" format="2">
  <advance width="559"/>
  <unicode hex="2C6A"/>
  <anchor x="274" y="-186" name="bottom"/>
  <anchor x="123" y="760" name="top"/>
  <anchor x="493" y="760" name="topright"/>
  <outline>
    <contour>
      <point x="547" y="74" type="line"/>
      <point x="438" y="74" type="line"/>
      <point x="460" y="0" type="line"/>
      <point x="460" y="-186" type="line"/>
      <point x="547" y="-186" type="line"/>
    </contour>
    <component base="k"/>
  </outline>
</glyph>
<glyph name="uni2C76" format="2">
  <advance width="437"/>
  <unicode hex="2C76"/>
  <anchor x="218" y="0" name="bottom"/>
  <anchor x="218" y="536" name="top"/>
  <outline>
    <contour>
      <point x="166" y="536" type="line"/>
      <point x="79" y="536" type="line"/>
      <point x="79" y="0" type="line"/>
      <point x="166" y="0" type="line"/>
      <point x="166" y="239" type="line"/>
      <point x="408" y="239" type="line"/>
      <point x="408" y="313" type="line"/>
      <point x="166" y="313" type="line"/>
    </contour>
  </outline>
</glyph>
<glyph name="uni2E4D" format="2">
  <advance width="495"/>
  <unicode hex="2E4D"/>
  <anchor x="262" y="0" name="bottom"/>
  <anchor x="305" y="714" name="top"/>
  <outline>
    <contour>
      <point x="128" y="338" type="line"/>
      <point x="468" y="678" type="line"/>
      <point x="431" y="714" type="line"/>
      <point x="92" y="375" type="line"/>
    </contour>
    <component base="afii10020"/>
  </outline>
</glyph>
<glyph name="uniA642" format="2">
  <advance width="577"/>
  <unicode hex="A642"/>
  <outline>
    <contour>
      <point x="68" y="315" type="line"/>
      <point x="493" y="315" type="line"/>
      <point x="493" y="391" type="line"/>
      <point x="68" y="391" type="line"/>
    </contour>
    <component base="uniA640"/>
  </outline>
</glyph>
<glyph name="uniA65C" format="2">
  <advance width="922"/>
  <unicode hex="A65C"/>
  <outline>
    <contour>
      <point x="397" y="78" type="line"/>
      <point x="382" y="0" type="line"/>
      <point x="887" y="0" type="line"/>
      <point x="887" y="78" type="line"/>
    </contour>
    <component base="uniA656"/>
  </outline>
</glyph>
<glyph name="uniA662" format="2">
  <advance width="880"/>
  <unicode hex="A662"/>
  <anchor x="328" y="-188" name="bottom"/>
  <anchor x="328" y="714" name="top"/>
  <outline>
    <contour>
      <point x="858" y="714" type="line"/>
      <point x="459" y="714" type="line"/>
      <point x="459" y="0" type="line"/>
      <point x="549" y="0" type="line"/>
      <point x="549" y="637" type="line"/>
      <point x="858" y="637" type="line"/>
    </contour>
    <component base="afii10021"/>
  </outline>
</glyph>
<glyph name="uniA665" format="2">
  <advance width="732"/>
  <unicode hex="A665"/>
  <anchor x="274" y="0" name="bottom"/>
  <anchor x="274" y="536" name="top"/>
  <outline>
    <contour>
      <point x="712" y="537" type="line"/>
      <point x="382" y="537" type="line"/>
      <point x="382" y="0" type="line"/>
      <point x="470" y="0" type="line"/>
      <point x="470" y="467" type="line"/>
      <point x="712" y="467" type="line"/>
    </contour>
    <component base="afii10077"/>
  </outline>
</glyph>
<glyph name="uniA666" format="2">
  <advance width="1106"/>
  <unicode hex="A666"/>
  <anchor x="423" y="0" name="bottom"/>
  <anchor x="428" y="714" name="top"/>
  <anchor x="837" y="714" name="topright"/>
  <outline>
    <contour>
      <point x="1084" y="714" type="line"/>
      <point x="669" y="714" type="line"/>
      <point x="760" y="637" type="line"/>
      <point x="1084" y="637" type="line"/>
    </contour>
    <component base="M"/>
  </outline>
</glyph>
<glyph name="uniA667" format="2">
  <advance width="924"/>
  <unicode hex="A667"/>
  <anchor x="354" y="0" name="bottom"/>
  <anchor x="354" y="536" name="top"/>
  <outline>
    <contour>
      <point x="893" y="537" type="line"/>
      <point x="555" y="537" type="line"/>
      <point x="622" y="467" type="line"/>
      <point x="893" y="467" type="line"/>
    </contour>
    <component base="afii10078"/>
  </outline>
</glyph>
<glyph name="uniA672" format="2">
  <unicode hex="A672"/>
  <outline>
    <contour>
      <point x="-623" y="431" type="line"/>
      <point x="-327" y="431" type="line"/>
      <point x="-327" y="479" type="line"/>
      <point x="-623" y="479" type="line"/>
    </contour>
    <contour>
      <point x="-623" y="61" type="line"/>
      <point x="-327" y="61" type="line"/>
      <point x="-327" y="109" type="line"/>
      <point x="-623" y="109" type="line"/>
    </contour>
    <contour>
      <point x="-623" y="246" type="line"/>
      <point x="-327" y="246" type="line"/>
      <point x="-327" y="294" type="line"/>
      <point x="-623" y="294" type="line"/>
    </contour>
    <contour>
      <point x="158" y="-63" type="line"/>
      <point x="158" y="-359" type="line"/>
      <point x="206" y="-359" type="line"/>
      <point x="206" y="-63" type="line"/>
    </contour>
    <contour>
      <point x="-211" y="-63" type="line"/>
      <point x="-211" y="-359" type="line"/>
      <point x="-163" y="-359" type="line"/>
      <point x="-163" y="-63" type="line"/>
    </contour>
    <contour>
      <point x="-27" y="-63" type="line"/>
      <point x="-27" y="-359" type="line"/>
      <point x="21" y="-359" type="line"/>
      <point x="21" y="-63" type="line"/>
    </contour>
    <contour>
      <point x="303" y="431" type="line"/>
      <point x="599" y="431" type="line"/>
      <point x="599" y="479" type="line"/>
      <point x="303" y="479" type="line"/>
    </contour>
    <contour>
      <point x="303" y="61" type="line"/>
      <point x="599" y="61" type="line"/>
      <point x="599" y="109" type="line"/>
      <point x="303" y="109" type="line"/>
    </contour>
    <contour>
      <point x="303" y="246" type="line"/>
      <point x="599" y="246" type="line"/>
      <point x="599" y="294" type="line"/>
      <point x="303" y="294" type="line"/>
    </contour>
    <contour>
      <point x="9" y="766" type="line"/>
      <point x="9" y="904" type="line"/>
      <point x="-38" y="904" type="line"/>
      <point x="-38" y="766" type="line"/>
      <point x="-162" y="766" type="line"/>
      <point x="-162" y="718" type="line"/>
      <point x="-38" y="718" type="line"/>
      <point x="-38" y="581" type="line"/>
      <point x="9" y="581" type="line"/>
      <point x="9" y="718" type="line"/>
      <point x="133" y="718" type="line"/>
      <point x="133" y="766" type="line"/>
    </contour>
  </outline>
</glyph>
<glyph name="uniA684" format="2">
  <advance width="1142"/>
  <unicode hex="A684"/>
  <anchor x="249" y="0" name="bottom_1"/>
  <anchor x="864" y="0" name="bottom_2"/>
  <anchor x="263" y="714" name="top_1"/>
  <anchor x="875" y="714" name="top_2"/>
  <outline>
    <contour>
      <point x="239" y="407" type="line"/>
      <point x="239" y="334" type="line"/>
      <point x="708" y="334" type="line"/>
      <point x="708" y="407" type="line"/>
    </contour>
    <component base="afii10025"/>
    <component base="afii10028" xOffset="557"/>
  </outline>
</glyph>
<glyph name="uniA685" format="2">
  <advance width="965"/>
  <unicode hex="A685"/>
  <anchor x="212" y="0" name="bottom_1"/>
  <anchor x="716" y="0" name="bottom_2"/>
  <anchor x="212" y="536" name="top_1"/>
  <anchor x="729" y="536" name="top_2"/>
  <outline>
    <contour>
      <point x="221" y="315" type="line"/>
      <point x="221" y="250" type="line"/>
      <point x="591" y="250" type="line"/>
      <point x="591" y="315" type="line"/>
    </contour>
    <component base="afii10073"/>
    <component base="afii10076" xOffset="464"/>
  </outline>
</glyph>
<glyph name="uniA69E" format="2">
  <unicode hex="A69E"/>
  <outline>
    <contour>
      <point x="30" y="762" type="line"/>
      <point x="-30" y="762" type="line"/>
      <point x="-30" y="625" type="line"/>
      <point x="-138" y="616"/>
      <point x="-192" y="550"/>
      <point x="-192" y="448" type="curve" smooth="yes"/>
      <point x="-192" y="347"/>
      <point x="-133" y="279"/>
      <point x="-30" y="271" type="curve"/>
      <point x="-30" y="123" type="line"/>
      <point x="30" y="123" type="line"/>
      <point x="30" y="271" type="line"/>
      <point x="136" y="280"/>
      <point x="191" y="347"/>
      <point x="191" y="448" type="curve" smooth="yes"/>
      <point x="191" y="549"/>
      <point x="135" y="615"/>
      <point x="30" y="625" type="curve"/>
    </contour>
    <contour>
      <point x="-30" y="573" type="curve"/>
      <point x="-30" y="322" type="line"/>
      <point x="-91" y="328"/>
      <point x="-127" y="375"/>
      <point x="-127" y="448" type="curve" smooth="yes"/>
      <point x="-127" y="521"/>
      <point x="-91" y="567"/>
    </contour>
    <contour>
      <point x="30" y="573" type="line"/>
      <point x="91" y="567"/>
      <point x="127" y="521"/>
      <point x="127" y="448" type="curve" smooth="yes"/>
      <point x="127" y="375"/>
      <point x="91" y="329"/>
      <point x="30" y="322" type="curve"/>
    </contour>
  </outline>
</glyph>
<glyph name="uniA745" format="2">
  <advance width="508"/>
  <unicode hex="A745"/>
  <anchor x="267" y="0" name="bottom"/>
  <anchor x="129" y="760" name="top"/>
  <anchor x="383" y="840" name="topright"/>
  <outline>
    <contour>
      <point x="231" y="105" type="line"/>
      <point x="269" y="56" type="line"/>
      <point x="509" y="243" type="line"/>
      <point x="470" y="292" type="line"/>
    </contour>
    <component base="uniA741"/>
  </outline>
</glyph>
<glyph name="uniA748" format="2">
  <advance width="496"/>
  <unicode hex="A748"/>
  <anchor x="283" y="0" name="bottom"/>
  <anchor x="248" y="357" name="center"/>
  <anchor x="134" y="714" name="top"/>
  <anchor x="344" y="714" name="topright"/>
  <outline>
    <contour>
      <point x="22" y="555" type="line"/>
      <point x="296" y="555" type="line"/>
      <point x="296" y="632" type="line"/>
      <point x="22" y="632" type="line"/>
    </contour>
    <component base="L"/>
  </outline>
</glyph>
<glyph name="uniA74A" format="2">
  <advance width="735"/>
  <unicode hex="A74A"/>
  <anchor x="369" y="0" name="bottom"/>
  <anchor x="368" y="357" name="center"/>
  <anchor x="368" y="725" name="top"/>
  <anchor x="716" y="725" name="topright"/>
  <outline>
    <contour>
      <point x="0" y="330" type="line"/>
      <point x="735" y="330" type="line"/>
      <point x="735" y="400" type="line"/>
      <point x="0" y="400" type="line"/>
    </contour>
    <component base="O"/>
  </outline>
</glyph>
<glyph name="uniA74B" format="2">
  <advance width="570"/>
  <unicode hex="A74B"/>
  <anchor x="299" y="0" name="bottom"/>
  <anchor x="300" y="268" name="center"/>
  <anchor x="300" y="536" name="top"/>
  <anchor x="557" y="536" name="topright"/>
  <outline>
    <contour>
      <point x="0" y="244" type="line"/>
      <point x="602" y="244" type="line"/>
      <point x="602" y="310" type="line"/>
      <point x="0" y="310" type="line"/>
    </contour>
    <component base="o" xOffset="15"/>
  </outline>
</glyph>
<glyph name="uniA751" format="2">
  <advance width="579"/>
  <unicode hex="A751"/>
  <anchor x="123" y="-240" name="bottom"/>
  <anchor x="312" y="536" name="top"/>
  <anchor x="552" y="536" name="topright"/>
  <outline>
    <contour>
      <point x="2" y="-144" type="line"/>
      <point x="357" y="-144" type="line"/>
      <point x="357" y="-79" type="line"/>
      <point x="2" y="-79" type="line"/>
    </contour>
    <component base="p"/>
  </outline>
</glyph>
<glyph name="uniA759" format="2">
  <advance width="751"/>
  <unicode hex="A759"/>
  <anchor x="456" y="-240" name="bottom"/>
  <anchor x="290" y="536" name="top"/>
  <anchor x="524" y="536" name="topright"/>
  <outline>
    <contour>
      <point x="696" y="324" type="curve" smooth="yes"/>
      <point x="696" y="281"/>
      <point x="680" y="251"/>
      <point x="628" y="201" type="curve" smooth="yes"/>
      <point x="211" y="-207" type="line"/>
      <point x="249" y="-244" type="line"/>
      <point x="665" y="165" type="line" smooth="yes"/>
      <point x="723" y="222"/>
      <point x="752" y="257"/>
      <point x="752" y="328" type="curve" smooth="yes"/>
      <point x="752" y="404"/>
      <point x="696" y="455"/>
      <point x="611" y="455" type="curve"/>
      <point x="611" y="402" type="line"/>
      <point x="666" y="402"/>
      <point x="696" y="373"/>
    </contour>
    <component base="q"/>
  </outline>
</glyph>
<glyph name="uniA75C" format="2">
  <advance width="610"/>
  <unicode hex="A75C"/>
  <outline>
    <contour>
      <point x="597" y="138" type="line"/>
      <point x="597" y="213" type="line"/>
      <point x="182" y="213" type="line"/>
      <point x="182" y="216" type="line"/>
      <point x="309" y="335" type="line" smooth="yes"/>
      <point x="398" y="418"/>
      <point x="443" y="481"/>
      <point x="443" y="565" type="curve" smooth="yes"/>
      <point x="443" y="670"/>
      <point x="372" y="724"/>
      <point x="257" y="724" type="curve" smooth="yes"/>
      <point x="174" y="724"/>
      <point x="116" y="695"/>
      <point x="62" y="645" type="curve"/>
      <point x="110" y="586" type="line"/>
      <point x="156" y="629"/>
      <point x="203" y="648"/>
      <point x="250" y="648" type="curve" smooth="yes"/>
      <point x="318" y="648"/>
      <point x="354" y="611"/>
      <point x="354" y="555" type="curve" smooth="yes"/>
      <point x="354" y="477"/>
      <point x="295" y="422"/>
      <point x="213" y="344" type="curve" smooth="yes"/>
      <point x="54" y="191" type="line"/>
      <point x="54" y="138" type="line"/>
    </contour>
    <contour>
      <point x="506" y="0" type="line"/>
      <point x="506" y="357" type="line"/>
      <point x="421" y="357" type="line"/>
      <point x="421" y="0" type="line"/>
    </contour>
  </outline>
</glyph>
<glyph name="uniA75F" format="2">
  <advance width="482"/>
  <unicode hex="A75F"/>
  <anchor x="239" y="0" name="bottom"/>
  <anchor x="239" y="536" name="top"/>
  <anchor x="463" y="536" name="topright"/>
  <outline>
    <contour>
      <point x="307" y="639" type="line"/>
      <point x="63" y="-93" type="line"/>
      <point x="116" y="-93" type="line"/>
      <point x="363" y="639" type="line"/>
    </contour>
    <component base="v"/>
  </outline>
</glyph>
<glyph name="uniA764" format="2">
  <advance width="568"/>
  <unicode hex="A764"/>
  <outline>
    <contour>
      <point x="281" y="552" type="curve" smooth="yes"/>
      <point x="180" y="552" type="line"/>
      <point x="180" y="603" type="line"/>
      <point x="282" y="603" type="line"/>
      <point x="282" y="668" type="line"/>
      <point x="180" y="668" type="line"/>
      <point x="180" y="714" type="line"/>
      <point x="91" y="714" type="line"/>
      <point x="91" y="668" type="line"/>
      <point x="7" y="668" type="line"/>
      <point x="7" y="603" type="line"/>
      <point x="91" y="603" type="line"/>
      <point x="91" y="0" type="line"/>
      <point x="180" y="0" type="line"/>
      <point x="180" y="132" type="line"/>
      <point x="268" y="132" type="line" smooth="yes"/>
      <point x="435" y="132"/>
      <point x="521" y="213"/>
      <point x="521" y="347" type="curve" smooth="yes"/>
      <point x="521" y="480"/>
      <point x="443" y="552"/>
    </contour>
    <contour>
      <point x="252" y="202" type="curve" smooth="yes"/>
      <point x="180" y="202" type="line"/>
      <point x="180" y="480" type="line"/>
      <point x="266" y="480" type="line" smooth="yes"/>
      <point x="378" y="480"/>
      <point x="429" y="438"/>
      <point x="429" y="346" type="curve" smooth="yes"/>
      <point x="429" y="238"/>
      <point x="366" y="202"/>
    </contour>
  </outline>
</glyph>
<glyph name="uniA765" format="2">
  <advance width="579"/>
  <unicode hex="A765"/>
  <anchor x="290" y="-240" name="bottom"/>
  <anchor x="290" y="760" name="top"/>
  <outline>
    <contour>
      <point x="357" y="669" type="line"/>
      <point x="8" y="669" type="line"/>
      <point x="8" y="606" type="line"/>
      <point x="357" y="606" type="line"/>
    </contour>
    <component base="thorn"/>
  </outline>
</glyph>
<glyph name="uniA767" format="2">
  <advance width="579"/>
  <unicode hex="A767"/>
  <anchor x="290" y="-240" name="bottom"/>
  <anchor x="290" y="760" name="top"/>
  <outline>
    <contour>
      <point x="357" y="-91" type="line"/>
      <point x="8" y="-91" type="line"/>
      <point x="8" y="-153" type="line"/>
      <point x="357" y="-153" type="line"/>
    </contour>
    <component base="thorn"/>
  </outline>
</glyph>
<glyph name="uniA768" format="2">
  <advance width="572"/>
  <unicode hex="A768"/>
  <outline>
    <contour>
      <point x="205" y="-165" type="line"/>
      <point x="205" y="-11" type="line"/>
      <point x="576" y="714" type="line"/>
      <point x="477" y="714" type="line"/>
      <point x="271" y="277" type="line" smooth="yes"/>
      <point x="242" y="218"/>
      <point x="216" y="162"/>
      <point x="199" y="119" type="curve"/>
      <point x="195" y="120" type="line"/>
      <point x="200" y="161"/>
      <point x="205" y="233"/>
      <point x="205" y="298" type="curve" smooth="yes"/>
      <point x="205" y="639" type="line"/>
      <point x="280" y="661" type="line"/>
      <point x="280" y="714" type="line"/>
      <point x="41" y="714" type="line"/>
      <point x="41" y="661" type="line"/>
      <point x="116" y="639" type="line"/>
      <point x="116" y="-165" type="line"/>
      <point x="41" y="-187" type="line"/>
      <point x="41" y="-240" type="line"/>
      <point x="280" y="-240" type="line"/>
      <point x="280" y="-187" type="line"/>
    </contour>
  </outline>
</glyph>
<glyph name="uniA771" format="2">
  <advance width="761"/>
  <unicode hex="A771"/>
  <anchor x="275" y="0" name="bottom"/>
  <anchor x="290" y="268" name="center"/>
  <anchor x="267" y="760" name="top"/>
  <anchor x="522" y="760" name="topright"/>
  <outline>
    <contour>
      <point x="485" y="0" type="line"/>
      <point x="756" y="0" type="line"/>
      <point x="756" y="72" type="line"/>
      <point x="485" y="72" type="line"/>
    </contour>
    <contour>
      <point x="633" y="228" type="line"/>
      <point x="467" y="-157" type="line"/>
      <point x="536" y="-157" type="line"/>
      <point x="701" y="228" type="line"/>
    </contour>
    <component base="d"/>
  </outline>
</glyph>
<glyph name="uniA773" format="2">
  <advance width="1072"/>
  <unicode hex="A773"/>
  <anchor x="444" y="0" name="bottom"/>
  <anchor x="451" y="536" name="top"/>
  <anchor x="835" y="536" name="topright"/>
  <outline>
    <contour>
      <point x="796" y="0" type="line"/>
      <point x="1067" y="0" type="line"/>
      <point x="1067" y="72" type="line"/>
      <point x="796" y="72" type="line"/>
    </contour>
    <contour>
      <point x="944" y="228" type="line"/>
      <point x="778" y="-157" type="line"/>
      <point x="847" y="-157" type="line"/>
      <point x="1012" y="228" type="line"/>
    </contour>
    <component base="m"/>
  </outline>
</glyph>
<glyph name="uniA774" format="2">
  <advance width="779"/>
  <unicode hex="A774"/>
  <anchor x="292" y="0" name="bottom"/>
  <anchor x="292" y="536" name="top"/>
  <anchor x="531" y="536" name="topright"/>
  <outline>
    <contour>
      <point x="503" y="0" type="line"/>
      <point x="774" y="0" type="line"/>
      <point x="774" y="72" type="line"/>
      <point x="503" y="72" type="line"/>
    </contour>
    <contour>
      <point x="651" y="228" type="line"/>
      <point x="485" y="-157" type="line"/>
      <point x="554" y="-157" type="line"/>
      <point x="719" y="228" type="line"/>
    </contour>
    <component base="n"/>
  </outline>
</glyph>
<glyph name="uniA776" format="2">
  <advance width="743"/>
  <unicode hex="A776"/>
  <anchor x="265" y="0" name="bottom"/>
  <anchor x="265" y="536" name="top"/>
  <outline>
    <contour>
      <point x="467" y="0" type="line"/>
      <point x="738" y="0" type="line"/>
      <point x="738" y="72" type="line"/>
      <point x="467" y="72" type="line"/>
    </contour>
    <contour>
      <point x="615" y="228" type="line"/>
      <point x="449" y="-157" type="line"/>
      <point x="518" y="-157" type="line"/>
      <point x="683" y="228" type="line"/>
    </contour>
    <component base="uni0280"/>
  </outline>
</glyph>
<glyph name="uniA792" format="2">
  <advance width="594"/>
  <unicode hex="A792"/>
  <anchor x="349" y="0" name="bottom"/>
  <anchor x="357" y="714" name="top"/>
  <anchor x="576" y="714" name="topright"/>
  <outline>
    <contour>
      <point x="-1" y="315" type="line"/>
      <point x="363" y="315" type="line"/>
      <point x="363" y="391" type="line"/>
      <point x="-1" y="391" type="line"/>
    </contour>
    <component base="C"/>
  </outline>
</glyph>
<glyph name="uniA7A1" format="2">
  <advance width="579"/>
  <unicode hex="A7A1"/>
  <anchor x="280" y="-240" name="bottom"/>
  <anchor x="280" y="536" name="top"/>
  <anchor x="524" y="536" name="topright"/>
  <outline>
    <contour>
      <point x="3" y="259" type="line"/>
      <point x="3" y="196" type="line"/>
      <point x="577" y="308" type="line"/>
      <point x="577" y="371" type="line"/>
    </contour>
    <component base="g"/>
  </outline>
</glyph>
<glyph name="uniA7A4" format="2">
  <advance width="719"/>
  <unicode hex="A7A4"/>
  <anchor x="359" y="0" name="bottom"/>
  <anchor x="359" y="714" name="top"/>
  <anchor x="700" y="714" name="topright"/>
  <outline>
    <contour>
      <point x="3" y="335" type="line"/>
      <point x="3" y="273" type="line"/>
      <point x="719" y="399" type="line"/>
      <point x="719" y="461" type="line"/>
    </contour>
    <component base="N"/>
  </outline>
</glyph>
<glyph name="uniA7AE" format="2">
  <advance width="275"/>
  <unicode hex="A7AE"/>
  <outline>
    <contour>
      <point x="232" y="0" type="line"/>
      <point x="232" y="48" type="line"/>
      <point x="176" y="60" type="line"/>
      <point x="176" y="477" type="line"/>
      <point x="232" y="489" type="line"/>
      <point x="232" y="537" type="line"/>
      <point x="44" y="537" type="line"/>
      <point x="44" y="489" type="line"/>
      <point x="100" y="477" type="line"/>
      <point x="100" y="60" type="line"/>
      <point x="44" y="48" type="line"/>
      <point x="44" y="0" type="line"/>
    </contour>
  </outline>
</glyph>
<glyph name="uniA7B8" format="2">
  <advance width="689"/>
  <unicode hex="A7B8"/>
  <anchor x="343" y="0" name="bottom"/>
  <anchor x="345" y="714" name="top"/>
  <anchor x="670" y="714" name="topright"/>
  <outline>
    <contour>
      <point x="91" y="-36" type="line"/>
      <point x="680" y="700" type="line"/>
      <point x="621" y="746" type="line"/>
      <point x="32" y="9" type="line"/>
    </contour>
    <component base="U"/>
  </outline>
</glyph>
<glyph name="uniA7B9" format="2">
  <advance width="583"/>
  <unicode hex="A7B9"/>
  <anchor x="278" y="0" name="bottom"/>
  <anchor x="292" y="536" name="top"/>
  <anchor x="531" y="536" name="topright"/>
  <outline>
    <contour>
      <point x="89" y="-38" type="line"/>
      <point x="569" y="521" type="line"/>
      <point x="516" y="566" type="line"/>
      <point x="36" y="6" type="line"/>
    </contour>
    <component base="u"/>
  </outline>
</glyph>
<glyph name="uniA7C7" format="2">
  <advance width="687"/>
  <unicode hex="A7C7"/>
  <anchor x="322" y="0" name="bottom"/>
  <anchor x="344" y="357" name="center"/>
  <anchor x="340" y="714" name="top"/>
  <anchor x="668" y="714" name="topright"/>
  <outline>
    <contour>
      <point x="137" y="333" type="line"/>
      <point x="592" y="333" type="line"/>
      <point x="592" y="402" type="line"/>
      <point x="137" y="402" type="line"/>
    </contour>
    <component base="D"/>
  </outline>
</glyph>
<glyph name="uniA7C8" format="2">
  <advance width="579"/>
  <unicode hex="A7C8"/>
  <anchor x="275" y="0" name="bottom"/>
  <anchor x="290" y="268" name="center"/>
  <anchor x="267" y="760" name="top"/>
  <anchor x="522" y="760" name="topright"/>
  <outline>
    <contour>
      <point x="104" y="238" type="line"/>
      <point x="460" y="238" type="line"/>
      <point x="460" y="303" type="line"/>
      <point x="104" y="303" type="line"/>
    </contour>
    <component base="d"/>
  </outline>
</glyph>
<glyph name="uniA7C9" format="2">
  <advance width="517"/>
  <unicode hex="A7C9"/>
  <anchor x="243" y="0" name="bottom"/>
  <anchor x="268" y="714" name="top"/>
  <anchor x="498" y="714" name="topright"/>
  <outline>
    <contour>
      <point x="27" y="335" type="line"/>
      <point x="500" y="335" type="line"/>
      <point x="500" y="400" type="line"/>
      <point x="27" y="400" type="line"/>
    </contour>
    <component base="S"/>
  </outline>
</glyph>
<glyph name="uniA7CA" format="2">
  <advance width="452"/>
  <unicode hex="A7CA"/>
  <anchor x="227" y="0" name="bottom"/>
  <anchor x="227" y="536" name="top"/>
  <anchor x="414" y="536" name="topright"/>
  <outline>
    <contour>
      <point x="26" y="245" type="line"/>
      <point x="432" y="245" type="line"/>
      <point x="432" y="310" type="line"/>
      <point x="26" y="310" type="line"/>
    </contour>
    <component base="s"/>
  </outline>
</glyph>
<glyph name="uniAB41" format="2">
  <advance width="893"/>
  <unicode hex="AB41"/>
  <anchor x="448" y="538" name="bottom"/>
  <anchor x="448" y="2" name="top"/>
  <outline>
    <contour>
      <point x="467" y="-31" type="line"/>
      <point x="850" y="520" type="line"/>
      <point x="798" y="555" type="line"/>
      <point x="415" y="4" type="line"/>
    </contour>
    <component base="oe" xScale="-1" yScale="-1" xOffset="894" yOffset="538"/>
  </outline>
</glyph>
<glyph name="uniAB42" format="2">
  <advance width="894"/>
  <unicode hex="AB42"/>
  <anchor x="448" y="538" name="bottom"/>
  <anchor x="448" y="2" name="top"/>
  <outline>
    <contour>
      <point x="396" y="305" type="line"/>
      <point x="396" y="239" type="line"/>
      <point x="792" y="239" type="line"/>
      <point x="792" y="305" type="line"/>
    </contour>
    <component base="oe" xScale="-1" yScale="-1" xOffset="894" yOffset="538"/>
  </outline>
</glyph>
<glyph name="uniAB44" format="2">
  <advance width="939"/>
  <unicode hex="AB44"/>
  <outline>
    <contour>
      <point x="515" y="-30" type="line"/>
      <point x="814" y="539" type="line"/>
      <point x="759" y="569" type="line"/>
      <point x="460" y="0" type="line"/>
    </contour>
    <component base="uniAB43"/>
  </outline>
</glyph>
<glyph name="uniAB60" format="2">
  <advance width="762"/>
  <unicode hex="AB60"/>
  <outline>
    <contour>
      <point x="307" y="0" type="line"/>
      <point x="512" y="0" type="line" smooth="yes"/>
      <point x="651" y="0"/>
      <point x="713" y="61"/>
      <point x="713" y="166" type="curve" smooth="yes"/>
      <point x="713" y="263"/>
      <point x="657" y="320"/>
      <point x="526" y="320" type="curve" smooth="yes"/>
      <point x="394" y="320" type="line"/>
      <point x="394" y="537" type="line"/>
      <point x="307" y="537" type="line"/>
    </contour>
    <contour>
      <point x="78" y="0" type="line"/>
      <point x="165" y="0" type="line"/>
      <point x="165" y="537" type="line"/>
      <point x="78" y="537" type="line"/>
    </contour>
    <contour>
      <point x="394" y="68" type="line"/>
      <point x="394" y="252" type="line"/>
      <point x="514" y="252" type="line" smooth="yes"/>
      <point x="586" y="252"/>
      <point x="625" y="229"/>
      <point x="625" y="163" type="curve" smooth="yes"/>
      <point x="625" y="98"/>
      <point x="586" y="68"/>
      <point x="513" y="68" type="curve" smooth="yes"/>
    </contour>
  </outline>
</glyph>
<glyph name="uniAB66" format="2">
  <advance width="906"/>
  <unicode hex="AB66"/>
  <anchor x="662" y="0" name="bottom"/>
  <anchor x="662" y="760" name="top"/>
  <outline>
    <contour>
      <point x="908" y="-198" type="curve" smooth="yes"/>
      <point x="933" y="-198"/>
      <point x="955" y="-191"/>
      <point x="968" y="-186" type="curve"/>
      <point x="968" y="-113" type="line"/>
      <point x="957" y="-117"/>
      <point x="939" y="-122"/>
      <point x="918" y="-122" type="curve" smooth="yes"/>
      <point x="888" y="-122"/>
      <point x="870" y="-106"/>
      <point x="870" y="-70" type="curve" smooth="yes"/>
      <point x="870" y="20" type="line"/>
      <point x="791" y="48" type="line"/>
      <point x="791" y="-65" type="line" smooth="yes"/>
      <point x="791" y="-151"/>
      <point x="828" y="-198"/>
    </contour>
    <component base="dzlig"/>
  </outline>
</glyph>
<glyph name="uniFE21" format="2">
  <unicode hex="FE21"/>
  <outline>
    <contour>
      <point x="0" y="775" type="curve" smooth="yes"/>
      <point x="-5" y="775" type="line"/>
      <point x="-5" y="703" type="line"/>
      <point x="0" y="703" type="line" smooth="yes"/>
      <point x="134" y="703"/>
      <point x="246" y="668"/>
      <point x="297" y="587" type="curve"/>
      <point x="365" y="587" type="line"/>
      <point x="302" y="720"/>
      <point x="165" y="775"/>
    </contour>
  </outline>
</glyph>
<glyph name="uniFE22" format="2">
  <unicode hex="FE22"/>
  <outline>
    <contour>
      <point x="0" y="638" type="curve"/>
      <point x="0" y="705" type="line"/>
      <point x="-63" y="720"/>
      <point x="-126" y="735"/>
      <point x="-197" y="735" type="curve" smooth="yes"/>
      <point x="-287" y="735"/>
      <point x="-348" y="697"/>
      <point x="-363" y="607" type="curve"/>
      <point x="-313" y="607" type="line"/>
      <point x="-305" y="644"/>
      <point x="-272" y="668"/>
      <point x="-199" y="668" type="curve" smooth="yes"/>
      <point x="-127" y="668"/>
      <point x="-64" y="653"/>
    </contour>
  </outline>
</glyph>
<glyph name="uniFE23" format="2">
  <unicode hex="FE23"/>
  <outline>
    <contour>
      <point x="0" y="705" type="curve"/>
      <point x="0" y="638" type="line"/>
      <point x="63" y="623"/>
      <point x="126" y="608"/>
      <point x="197" y="608" type="curve" smooth="yes"/>
      <point x="286" y="608"/>
      <point x="348" y="646"/>
      <point x="363" y="736" type="curve"/>
      <point x="313" y="736" type="line"/>
      <point x="304" y="699"/>
      <point x="271" y="675"/>
      <point x="198" y="675" type="curve" smooth="yes"/>
      <point x="127" y="675"/>
      <point x="64" y="690"/>
    </contour>
  </outline>
</glyph>
<glyph name="uniFE2E" format="2">
  <unicode hex="FE2E"/>
  <outline>
    <contour>
      <point x="-57" y="615" type="curve"/>
      <point x="144" y="615" type="line"/>
      <point x="144" y="674" type="line"/>
      <point x="-93" y="674" type="line" smooth="yes"/>
      <point x="-129" y="674"/>
      <point x="-146" y="658"/>
      <point x="-146" y="622" type="curve" smooth="yes"/>
      <point x="-146" y="588"/>
      <point x="-131" y="571"/>
      <point x="-101" y="571" type="curve" smooth="yes"/>
      <point x="-75" y="571"/>
      <point x="-61" y="583"/>
    </contour>
  </outline>
</glyph>
<glyph name="uniFE2F" format="2">
  <unicode hex="FE2F"/>
  <outline>
    <contour>
      <point x="-145" y="615" type="line"/>
      <point x="91" y="615" type="line" smooth="yes"/>
      <point x="133" y="615"/>
      <point x="145" y="635"/>
      <point x="145" y="668" type="curve" smooth="yes"/>
      <point x="145" y="703"/>
      <point x="130" y="718"/>
      <point x="101" y="718" type="curve" smooth="yes"/>
      <point x="74" y="718"/>
      <point x="60" y="705"/>
      <point x="56" y="674" type="curve"/>
      <point x="-145" y="674" type="line"/>
    </contour>
  </outline>
</glyph>
<glyph name="four.lf" format="2">
  <advance width="538"/>
  <outline>
    <contour>
      <point x="338" y="0" type="line"/>
      <point x="422" y="0" type="line"/>
      <point x="422" y="162" type="line"/>
      <point x="519" y="162" type="line"/>
      <point x="519" y="241" type="line"/>
      <point x="422" y="241" type="line"/>
      <point x="422" y="718" type="line"/>
      <point x="333" y="718" type="line"/>
      <point x="19" y="237" type="line"/>
      <point x="19" y="162" type="line"/>
      <point x="338" y="162" type="line"/>
    </contour>
    <contour>
      <point x="338" y="241" type="line"/>
      <point x="103" y="241" type="line"/>
      <point x="289" y="536" type="line" smooth="yes"/>
      <point x="301" y="556"/>
      <point x="325" y="595"/>
      <point x="338" y="620" type="curve"/>
      <point x="342" y="620" type="line"/>
      <point x="339" y="586"/>
      <point x="338" y="535"/>
      <point x="338" y="466" type="curve" smooth="yes"/>
    </contour>
  </outline>
</glyph>
<glyph name="uni03D0.alt" format="2">
  <advance width="594"/>
  <anchor x="298" y="-10" name="bottom"/>
  <anchor x="298" y="765" name="top"/>
  <outline>
    <contour>
      <point x="305" y="765" type="curve" smooth="yes"/>
      <point x="174" y="765"/>
      <point x="79" y="696"/>
      <point x="79" y="535" type="curve" smooth="yes"/>
      <point x="79" y="203" type="line"/>
      <point x="79" y="66"/>
      <point x="167" y="-10"/>
      <point x="315" y="-10" type="curve" smooth="yes"/>
      <point x="464" y="-10"/>
      <point x="552" y="66"/>
      <point x="552" y="203" type="curve" smooth="yes"/>
      <point x="552" y="324"/>
      <point x="492" y="388"/>
      <point x="379" y="402" type="curve"/>
      <point x="379" y="406" type="line"/>
      <point x="472" y="422"/>
      <point x="522" y="478"/>
      <point x="522" y="574" type="curve" smooth="yes"/>
      <point x="522" y="701"/>
      <point x="431" y="765"/>
    </contour>
    <contour>
      <point x="303" y="692" type="curve" smooth="yes"/>
      <point x="382" y="692"/>
      <point x="433" y="652"/>
      <point x="433" y="570" type="curve" smooth="yes"/>
      <point x="433" y="489"/>
      <point x="391" y="435"/>
      <point x="295" y="435" type="curve" smooth="yes"/>
      <point x="255" y="435" type="line"/>
      <point x="255" y="361" type="line"/>
      <point x="304" y="361" type="line" smooth="yes"/>
      <point x="400" y="361"/>
      <point x="465" y="314"/>
      <point x="465" y="209" type="curve" smooth="yes"/>
      <point x="465" y="115"/>
      <point x="418" y="62"/>
      <point x="317" y="62" type="curve" smooth="yes"/>
      <point x="213" y="62"/>
      <point x="166" y="115"/>
      <point x="166" y="209" type="curve" smooth="yes"/>
      <point x="166" y="531" type="line"/>
      <point x="166" y="656"/>
      <point x="229" y="692"/>
    </contour>
  </outline>
</glyph>
<glyph name="uni1FCD02C9" format="2">
  <advance width="377"/>
  <anchor x="187" y="536" name="_top"/>
  <anchor x="190" y="874" name="top"/>
  <outline>
    <contour>
      <point x="276" y="864" type="curve"/>
      <point x="184" y="864" type="line"/>
      <point x="184" y="854" type="line"/>
      <point x="204" y="812"/>
      <point x="241" y="753"/>
      <point x="277" y="706" type="curve"/>
      <point x="319" y="706" type="line"/>
      <point x="319" y="718" type="line"/>
      <point x="305" y="758"/>
      <point x="286" y="818"/>
    </contour>
    <contour>
      <point x="329" y="669" type="line"/>
      <point x="48" y="669" type="line"/>
      <point x="48" y="598" type="line"/>
      <point x="329" y="598" type="line"/>
    </contour>
    <contour>
      <point x="120" y="874" type="curve" smooth="yes"/>
      <point x="93" y="874"/>
      <point x="71" y="860"/>
      <point x="71" y="826" type="curve" smooth="yes"/>
      <point x="71" y="794"/>
      <point x="92" y="779"/>
      <point x="120" y="779" type="curve"/>
      <point x="115" y="764"/>
      <point x="97" y="735"/>
      <point x="64" y="733" type="curve"/>
      <point x="64" y="696" type="line"/>
      <point x="138" y="704"/>
      <point x="169" y="744"/>
      <point x="169" y="815" type="curve" smooth="yes"/>
      <point x="169" y="849"/>
      <point x="151" y="874"/>
    </contour>
  </outline>
</glyph>
<glyph name="uni1FCD0306" format="2">
  <advance width="376"/>
  <anchor x="188" y="536" name="_top"/>
  <anchor x="190" y="904" name="top"/>
  <outline>
    <contour>
      <point x="186" y="591" type="curve" smooth="yes"/>
      <point x="272" y="591"/>
      <point x="324" y="638"/>
      <point x="334" y="711" type="curve"/>
      <point x="279" y="711" type="line"/>
      <point x="268" y="671"/>
      <point x="232" y="662"/>
      <point x="187" y="662" type="curve" smooth="yes"/>
      <point x="134" y="662"/>
      <point x="105" y="667"/>
      <point x="95" y="711" type="curve"/>
      <point x="42" y="711" type="line"/>
      <point x="51" y="637"/>
      <point x="97" y="591"/>
    </contour>
    <contour>
      <point x="64" y="763" type="curve"/>
      <point x="64" y="726" type="line"/>
      <point x="138" y="734"/>
      <point x="169" y="774"/>
      <point x="169" y="845" type="curve" smooth="yes"/>
      <point x="169" y="879"/>
      <point x="151" y="904"/>
      <point x="120" y="904" type="curve" smooth="yes"/>
      <point x="92" y="904"/>
      <point x="71" y="890"/>
      <point x="71" y="856" type="curve" smooth="yes"/>
      <point x="71" y="824"/>
      <point x="92" y="809"/>
      <point x="120" y="809" type="curve"/>
      <point x="120" y="787"/>
      <point x="106" y="766"/>
    </contour>
    <contour>
      <point x="277" y="736" type="curve"/>
      <point x="318" y="736" type="line"/>
      <point x="318" y="748" type="line"/>
      <point x="304" y="788"/>
      <point x="286" y="848"/>
      <point x="276" y="894" type="curve"/>
      <point x="184" y="894" type="line"/>
      <point x="184" y="884" type="line"/>
      <point x="203" y="842"/>
      <point x="241" y="783"/>
    </contour>
  </outline>
</glyph>
<glyph name="uni1FCE02C9" format="2">
  <advance width="377"/>
  <anchor x="187" y="536" name="_top"/>
  <anchor x="193" y="874" name="top"/>
  <outline>
    <contour>
      <point x="198" y="706" type="line"/>
      <point x="239" y="706" type="line"/>
      <point x="275" y="753"/>
      <point x="313" y="812"/>
      <point x="333" y="854" type="curve"/>
      <point x="333" y="864" type="line"/>
      <point x="240" y="864" type="line"/>
      <point x="230" y="818"/>
      <point x="212" y="758"/>
      <point x="198" y="718" type="curve"/>
    </contour>
    <contour>
      <point x="48" y="598" type="line"/>
      <point x="329" y="598" type="line"/>
      <point x="329" y="669" type="line"/>
      <point x="48" y="669" type="line"/>
    </contour>
    <contour>
      <point x="74" y="696" type="line"/>
      <point x="148" y="704"/>
      <point x="179" y="744"/>
      <point x="179" y="815" type="curve" smooth="yes"/>
      <point x="179" y="849"/>
      <point x="161" y="874"/>
      <point x="130" y="874" type="curve" smooth="yes"/>
      <point x="102" y="874"/>
      <point x="81" y="860"/>
      <point x="81" y="826" type="curve" smooth="yes"/>
      <point x="81" y="794"/>
      <point x="102" y="779"/>
      <point x="129" y="779" type="curve"/>
      <point x="124" y="763"/>
      <point x="107" y="735"/>
      <point x="74" y="733" type="curve"/>
    </contour>
  </outline>
</glyph>
<glyph name="uni1FCE0306" format="2">
  <advance width="378"/>
  <anchor x="189" y="536" name="_top"/>
  <anchor x="191" y="904" name="top"/>
  <outline>
    <contour>
      <point x="187" y="591" type="curve" smooth="yes"/>
      <point x="273" y="591"/>
      <point x="325" y="638"/>
      <point x="335" y="711" type="curve"/>
      <point x="280" y="711" type="line"/>
      <point x="269" y="671"/>
      <point x="233" y="662"/>
      <point x="188" y="662" type="curve" smooth="yes"/>
      <point x="135" y="662"/>
      <point x="106" y="667"/>
      <point x="96" y="711" type="curve"/>
      <point x="43" y="711" type="line"/>
      <point x="52" y="637"/>
      <point x="98" y="591"/>
    </contour>
    <contour>
      <point x="75" y="726" type="line"/>
      <point x="148" y="734"/>
      <point x="179" y="774"/>
      <point x="179" y="845" type="curve" smooth="yes"/>
      <point x="179" y="879"/>
      <point x="161" y="904"/>
      <point x="130" y="904" type="curve" smooth="yes"/>
      <point x="103" y="904"/>
      <point x="81" y="890"/>
      <point x="81" y="856" type="curve" smooth="yes"/>
      <point x="81" y="824"/>
      <point x="102" y="809"/>
      <point x="130" y="809" type="curve"/>
      <point x="130" y="787"/>
      <point x="116" y="766"/>
      <point x="75" y="763" type="curve"/>
    </contour>
    <contour>
      <point x="198" y="736" type="line"/>
      <point x="240" y="736" type="line"/>
      <point x="275" y="783"/>
      <point x="313" y="842"/>
      <point x="333" y="884" type="curve"/>
      <point x="333" y="894" type="line"/>
      <point x="240" y="894" type="line"/>
      <point x="231" y="848"/>
      <point x="212" y="788"/>
      <point x="198" y="748" type="curve"/>
    </contour>
  </outline>
</glyph>
<glyph name="uni1FDD02C9" format="2">
  <advance width="377"/>
  <anchor x="187" y="536" name="_top"/>
  <anchor x="190" y="874" name="top"/>
  <outline>
    <contour>
      <point x="270" y="864" type="curve"/>
      <point x="178" y="864" type="line"/>
      <point x="178" y="854" type="line"/>
      <point x="197" y="812"/>
      <point x="235" y="753"/>
      <point x="271" y="706" type="curve"/>
      <point x="312" y="706" type="line"/>
      <point x="312" y="718" type="line"/>
      <point x="299" y="758"/>
      <point x="280" y="818"/>
    </contour>
    <contour>
      <point x="329" y="669" type="line"/>
      <point x="48" y="669" type="line"/>
      <point x="48" y="598" type="line"/>
      <point x="329" y="598" type="line"/>
    </contour>
    <contour>
      <point x="112" y="874" type="curve" smooth="yes"/>
      <point x="81" y="874"/>
      <point x="63" y="849"/>
      <point x="63" y="815" type="curve" smooth="yes"/>
      <point x="63" y="744"/>
      <point x="94" y="704"/>
      <point x="167" y="696" type="curve"/>
      <point x="167" y="733" type="line"/>
      <point x="126" y="736"/>
      <point x="112" y="757"/>
      <point x="112" y="779" type="curve"/>
      <point x="140" y="779"/>
      <point x="161" y="794"/>
      <point x="161" y="826" type="curve" smooth="yes"/>
      <point x="161" y="860"/>
      <point x="139" y="874"/>
    </contour>
  </outline>
</glyph>
<glyph name="uni1FDD0306" format="2">
  <advance width="378"/>
  <anchor x="189" y="536" name="_top"/>
  <anchor x="191" y="904" name="top"/>
  <outline>
    <contour>
      <point x="187" y="591" type="curve" smooth="yes"/>
      <point x="273" y="591"/>
      <point x="325" y="638"/>
      <point x="335" y="711" type="curve"/>
      <point x="280" y="711" type="line"/>
      <point x="269" y="671"/>
      <point x="233" y="662"/>
      <point x="188" y="662" type="curve" smooth="yes"/>
      <point x="135" y="662"/>
      <point x="106" y="667"/>
      <point x="96" y="711" type="curve"/>
      <point x="43" y="711" type="line"/>
      <point x="52" y="637"/>
      <point x="98" y="591"/>
    </contour>
    <contour>
      <point x="168" y="726" type="curve"/>
      <point x="168" y="763" type="line"/>
      <point x="126" y="766"/>
      <point x="113" y="787"/>
      <point x="113" y="809" type="curve"/>
      <point x="140" y="809"/>
      <point x="162" y="824"/>
      <point x="162" y="856" type="curve" smooth="yes"/>
      <point x="162" y="890"/>
      <point x="140" y="904"/>
      <point x="112" y="904" type="curve" smooth="yes"/>
      <point x="82" y="904"/>
      <point x="63" y="879"/>
      <point x="63" y="845" type="curve" smooth="yes"/>
      <point x="63" y="774"/>
      <point x="94" y="734"/>
    </contour>
    <contour>
      <point x="272" y="736" type="curve"/>
      <point x="313" y="736" type="line"/>
      <point x="313" y="748" type="line"/>
      <point x="299" y="788"/>
      <point x="281" y="848"/>
      <point x="271" y="894" type="curve"/>
      <point x="178" y="894" type="line"/>
      <point x="178" y="884" type="line"/>
      <point x="198" y="842"/>
      <point x="236" y="783"/>
    </contour>
  </outline>
</glyph>
<glyph name="uni1FDE02C9" format="2">
  <advance width="377"/>
  <anchor x="187" y="536" name="_top"/>
  <anchor x="192" y="874" name="top"/>
  <outline>
    <contour>
      <point x="197" y="718" type="curve"/>
      <point x="197" y="706" type="line"/>
      <point x="238" y="706" type="line"/>
      <point x="274" y="753"/>
      <point x="312" y="812"/>
      <point x="332" y="854" type="curve"/>
      <point x="332" y="864" type="line"/>
      <point x="239" y="864" type="line"/>
      <point x="229" y="818"/>
      <point x="211" y="758"/>
    </contour>
    <contour>
      <point x="48" y="598" type="line"/>
      <point x="329" y="598" type="line"/>
      <point x="329" y="669" type="line"/>
      <point x="48" y="669" type="line"/>
    </contour>
    <contour>
      <point x="177" y="696" type="curve"/>
      <point x="177" y="733" type="line"/>
      <point x="135" y="736"/>
      <point x="122" y="757"/>
      <point x="122" y="779" type="curve"/>
      <point x="150" y="779"/>
      <point x="171" y="794"/>
      <point x="171" y="826" type="curve" smooth="yes"/>
      <point x="171" y="860"/>
      <point x="149" y="874"/>
      <point x="121" y="874" type="curve" smooth="yes"/>
      <point x="91" y="874"/>
      <point x="72" y="849"/>
      <point x="72" y="815" type="curve" smooth="yes"/>
      <point x="72" y="744"/>
      <point x="103" y="704"/>
    </contour>
  </outline>
</glyph>
<glyph name="uni1FDE0306" format="2">
  <advance width="378"/>
  <anchor x="189" y="536" name="_top"/>
  <anchor x="191" y="904" name="top"/>
  <outline>
    <contour>
      <point x="187" y="591" type="curve" smooth="yes"/>
      <point x="273" y="591"/>
      <point x="325" y="638"/>
      <point x="335" y="711" type="curve"/>
      <point x="280" y="711" type="line"/>
      <point x="269" y="671"/>
      <point x="233" y="662"/>
      <point x="188" y="662" type="curve" smooth="yes"/>
      <point x="135" y="662"/>
      <point x="106" y="667"/>
      <point x="96" y="711" type="curve"/>
      <point x="43" y="711" type="line"/>
      <point x="52" y="637"/>
      <point x="98" y="591"/>
    </contour>
    <contour>
      <point x="178" y="726" type="curve"/>
      <point x="178" y="763" type="line"/>
      <point x="136" y="766"/>
      <point x="122" y="787"/>
      <point x="122" y="809" type="curve"/>
      <point x="150" y="809"/>
      <point x="171" y="824"/>
      <point x="171" y="856" type="curve" smooth="yes"/>
      <point x="171" y="890"/>
      <point x="150" y="904"/>
      <point x="122" y="904" type="curve" smooth="yes"/>
      <point x="91" y="904"/>
      <point x="73" y="879"/>
      <point x="73" y="845" type="curve" smooth="yes"/>
      <point x="73" y="774"/>
      <point x="104" y="734"/>
    </contour>
    <contour>
      <point x="198" y="748" type="curve"/>
      <point x="198" y="736" type="line"/>
      <point x="239" y="736" type="line"/>
      <point x="275" y="783"/>
      <point x="312" y="842"/>
      <point x="332" y="884" type="curve"/>
      <point x="332" y="894" type="line"/>
      <point x="240" y="894" type="line"/>
      <point x="230" y="848"/>
      <point x="211" y="788"/>
    </contour>
  </outline>
</glyph>
